<?xml version="1.0" standalone="no"?>
<!DOCTYPE svg PUBLIC "-//W3C//DTD SVG 20010904//EN"
 "http://www.w3.org/TR/2001/REC-SVG-20010904/DTD/svg10.dtd">
<svg version="1.0" xmlns="http://www.w3.org/2000/svg"
 width="200.000000pt" height="200.000000pt" viewBox="0 0 200.000000 200.000000"
 preserveAspectRatio="xMidYMid meet">

<g transform="translate(0.000000,200.000000) scale(0.100000,-0.100000)"
fill="#95AAFB" stroke="none">
<path d="M947 1962 c-21 -22 -37 -48 -37 -61 0 -20 4 -23 30 -19 l30 5 0 -83
0 -83 -47 -6 c-70 -10 -156 -33 -209 -56 -105 -45 -232 -147 -300 -243 l-21
-29 -66 37 c-64 36 -89 56 -69 56 16 0 23 32 10 47 -12 14 -17 14 -100 -8 -44
-11 -46 -20 -22 -98 13 -44 19 -52 37 -49 12 2 24 12 27 25 5 21 7 20 75 -19
39 -23 71 -42 72 -43 2 -1 -8 -28 -21 -61 -31 -77 -56 -197 -56 -274 0 -77 25
-197 56 -275 14 -33 21 -61 17 -62 -5 -2 -37 -21 -73 -42 -63 -38 -65 -39 -70
-18 -3 13 -15 23 -27 25 -18 3 -24 -5 -37 -49 -24 -79 -22 -87 26 -99 64 -18
89 -17 102 3 9 15 7 21 -7 31 -20 16 -18 18 67 66 l59 33 21 -29 c68 -96 195
-198 300 -243 53 -23 139 -46 209 -56 l47 -6 0 -83 0 -83 -30 5 c-26 4 -30 1
-30 -20 0 -27 66 -98 91 -98 23 0 89 73 89 99 0 20 -4 23 -30 19 l-30 -5 0 83
0 83 48 6 c69 10 155 33 208 56 105 45 232 147 300 243 l21 29 59 -33 c85 -48
87 -50 67 -66 -14 -10 -16 -16 -7 -31 13 -20 38 -21 102 -3 48 12 50 20 26 99
-13 44 -19 52 -37 49 -12 -2 -24 -12 -27 -25 -5 -21 -7 -20 -75 19 -38 23 -72
42 -73 44 -2 1 6 24 17 50 82 184 77 387 -13 604 -4 11 14 26 67 56 70 40 72
41 77 20 3 -12 15 -22 27 -24 18 -3 24 5 37 49 24 79 22 87 -26 99 -64 18 -89
17 -102 -3 -9 -15 -7 -21 7 -31 20 -16 18 -18 -67 -66 l-59 -33 -21 29 c-68
96 -195 198 -300 243 -53 23 -139 46 -208 56 l-48 6 0 83 0 82 27 -1 c43 0 41
31 -3 76 -21 21 -45 39 -54 39 -9 0 -33 -17 -53 -38z m201 -323 c116 -26 241
-98 327 -190 241 -257 240 -645 -4 -902 -30 -31 -57 -57 -61 -57 -4 0 -11 16
-14 36 -14 73 -108 134 -205 134 -28 0 -31 3 -31 31 0 25 11 42 48 78 26 25
59 69 72 96 24 47 25 60 25 217 0 187 -5 203 -78 243 -35 19 -37 23 -37 71 0
33 -5 56 -15 64 -10 8 -52 11 -147 8 -121 -3 -138 -6 -184 -30 -29 -15 -68
-46 -87 -69 -56 -65 -67 -111 -67 -280 0 -185 15 -234 96 -314 42 -41 54 -60
54 -84 0 -28 -3 -31 -31 -31 -97 0 -191 -61 -205 -134 -3 -20 -10 -36 -14 -36
-5 0 -37 31 -73 70 -113 122 -170 270 -170 440 0 170 57 318 169 439 141 152
320 226 519 214 39 -2 89 -8 113 -14z m-28 -281 c0 -59 12 -78 48 -78 34 0 82
-52 82 -89 0 -36 -2 -37 -35 -15 -21 14 -28 14 -70 0 -59 -21 -203 -21 -279
-1 -53 14 -61 14 -82 0 -31 -20 -34 -19 -34 13 0 100 75 191 175 212 17 3 67
7 113 9 l82 2 0 -53z m-181 -259 c73 -9 206 1 232 17 5 3 25 -4 44 -16 33 -21
35 -24 35 -79 0 -80 -25 -147 -74 -195 -99 -99 -254 -99 -351 -1 -50 49 -75
116 -75 196 0 53 2 58 33 78 20 13 41 19 55 16 13 -3 59 -10 101 -16z m151
-430 c0 -34 -23 -43 -61 -24 -26 14 -32 14 -60 0 -39 -21 -59 -13 -59 22 l0
28 90 0 90 0 0 -26z m-188 -95 c29 -15 34 -15 65 0 31 15 36 15 65 0 29 -15
34 -15 59 0 36 21 149 22 189 1 37 -19 62 -66 58 -108 -3 -28 -10 -36 -60 -60
-168 -81 -388 -81 -556 0 -51 25 -57 32 -60 62 -4 43 14 79 53 103 39 23 143
25 187 2z"/>
</g>
</svg>
