<?xml version="1.0" standalone="no"?>
<!DOCTYPE svg PUBLIC "-//W3C//DTD SVG 20010904//EN"
 "http://www.w3.org/TR/2001/REC-SVG-20010904/DTD/svg10.dtd">
<svg version="1.0" xmlns="http://www.w3.org/2000/svg"
 width="200.000000pt" height="200.000000pt" viewBox="0 0 200.000000 200.000000"
 preserveAspectRatio="xMidYMid meet">

<g transform="translate(0.000000,200.000000) scale(0.100000,-0.100000)"
fill="#95AAFB" stroke="none">
<path d="M880 1830 l0 -150 145 0 145 0 0 150 0 150 -145 0 -145 0 0 -150z
m240 -5 l0 -95 -95 0 -95 0 0 95 0 95 95 0 95 0 0 -95z"/>
<path d="M510 1719 c-24 -41 -60 -104 -81 -140 -22 -36 -39 -68 -39 -72 0 -4
75 -7 166 -7 l165 0 -32 58 c-18 31 -56 97 -85 146 l-52 88 -42 -73z m79 -98
c18 -29 30 -55 28 -58 -3 -2 -34 -3 -70 -1 l-66 3 36 58 c19 32 37 57 38 55 2
-2 17 -27 34 -57z"/>
<path d="M1372 1760 c-91 -55 -96 -172 -12 -244 25 -21 42 -26 83 -26 91 0
150 58 150 146 0 111 -126 182 -221 124z m146 -65 c32 -38 30 -89 -7 -126 -81
-81 -207 30 -138 122 35 46 106 48 145 4z"/>
<path d="M902 1389 c-164 -82 -174 -307 -18 -404 42 -25 59 -30 116 -30 57 0
74 5 116 30 122 76 149 237 58 344 -68 79 -182 104 -272 60z m177 -59 c22 -11
48 -35 60 -53 45 -73 39 -147 -16 -208 -62 -69 -162 -76 -230 -16 -66 58 -80
132 -40 208 43 81 143 112 226 69z"/>
<path d="M406 1219 c-53 -42 -56 -58 -56 -314 0 -255 4 -278 54 -325 26 -23
36 -25 164 -30 l137 -5 3 -248 2 -247 290 0 290 0 2 247 3 248 137 5 c135 5
137 5 168 35 17 16 35 45 41 65 6 21 9 129 7 278 l-3 244 -37 34 c-33 30 -44
34 -92 34 -40 0 -60 -6 -81 -22 -47 -37 -55 -72 -55 -248 l0 -160 -380 0 -380
0 0 153 c0 174 -8 216 -51 251 -40 34 -123 37 -163 5z m120 -47 c29 -19 34
-56 34 -236 l0 -186 440 0 440 0 0 188 c0 224 4 236 72 240 76 5 78 -1 78
-279 0 -306 16 -282 -197 -289 l-158 -5 -3 -248 -2 -247 -230 0 -230 0 -2 247
-3 248 -158 5 c-214 7 -197 -18 -197 291 0 226 1 240 20 259 20 20 74 27 96
12z"/>
</g>
</svg>
