<svg data-name="Layer 1" width="100px" xmlns="http://www.w3.org/2000/svg" viewBox="0 0 133 39"><path d="M40.81.11H4.1a1.77 1.77 0 0 0-1.83 1.26L.09 8a1.37 1.37 0 0 0 1.38 1.83H11.9l1.72-5.26a.48.48 0 0 1 .92 0l1.72 5.26h5.62a.42.42 0 0 1 .23.8l-4.47 3.31 1.72 5.26a.48.48 0 0 1-.69.57l-4.47-3.31-5.74 4.11v.12L3.07 37.15A1.37 1.37 0 0 0 4.45 39h12a1.72 1.72 0 0 0 1.72-1.25l9.06-28h11A1.72 1.72 0 0 0 40 8.46l2.18-6.63A1.36 1.36 0 0 0 40.81 0m4.95 9.74a1.47 1.47 0 0 1-1.38-1.83l2.19-6.63A1.87 1.87 0 0 1 48.3 0h36.88a1.46 1.46 0 0 1 1.38 1.82l-2.19 6.66a2.14 2.14 0 0 1-1.73 1.26H71.58l-9.11 28A1.87 1.87 0 0 1 60.74 39h-12.1a1.47 1.47 0 0 1-1.38-1.83l9.45-27.43m43 9.66h-.23L93.6 37.52a7.32 7.32 0 0 1-.47.91 1.67 1.67 0 0 1-1.49.57H79.76c-.69 0-1-.11-1.27-.46a1.06 1.06 0 0 1 0-1L90.25 1.62a2.79 2.79 0 0 1 .69-1 2.59 2.59 0 0 1 1.5-.46h9.11a4.22 4.22 0 0 1 2.08.34 2.52 2.52 0 0 1 .8 1l4 9.68 3.34 7.87.23-.12 5.65-17.43c.12-.23.35-.57.58-.91a1.66 1.66 0 0 1 1.5-.57h12c.69 0 1 .11 1.15.45a1.48 1.48 0 0 1 0 1L121.15 37.4a2.52 2.52 0 0 1-.69 1 2.47 2.47 0 0 1-1.38.46h-9a3.49 3.49 0 0 1-2.07-.46 3.21 3.21 0 0 1-1-1.14L103.05 28Z" fill="#fff"/></svg>