<?xml version="1.0" encoding="utf-8"?>
<!-- Generator: Adobe Illustrator 21.0.2, SVG Export Plug-In . SVG Version: 6.00 Build 0)  -->
<svg version="1.1" id="Layer_1" xmlns="http://www.w3.org/2000/svg" xmlns:xlink="http://www.w3.org/1999/xlink" x="0px" y="0px"
	 width="175px" height="31px" viewBox="0 0 1135 199.5" style="enable-background:new 0 0 1135 199.5;" xml:space="preserve">
<style type="text/css">
	.st0{fill:#ffffff;}
</style>
<path class="st0" d="M213.7,0.4c4.8,0,8.3,4.7,6.8,9.3l-10.9,33.8c-1.2,3.7-4.7,6.3-8.6,6.3h-56.2L98.2,193.2
	c-1.2,3.7-4.7,6.3-8.6,6.3H28c-4.8,0-8.3-4.7-6.8-9.3l27.5-84.5l0.1-0.6l29-21.1l23.1,16.8c1.9,1.4,4.4-0.5,3.7-2.7l-8.8-27.2
	l23.1-16.8c1.9-1.4,0.9-4.3-1.4-4.3H88.9l-8.8-27.2c-0.7-2.2-3.8-2.2-4.5,0l-8.8,27.2H13.6c-4.8,0-8.3-4.7-6.8-9.3L17.7,6.7
	c1.2-3.7,4.7-6.3,9.6-6.3h187.3 M437.8,0.6H250.5c-3.9,0-7.4,2.5-8.6,6.3l-10.9,33.8c-1.5,4.6,1.9,9.3,6.8,9.3l55.7,0l-48,140.3
	c-1.5,4.6,1.9,9.3,6.8,9.3h61.5c3.9,0,7.4-2.5,8.6-6.3L368.8,50H425c3.9,0,7.4-2.5,8.6-6.3l10.9-33.8C446.1,5.3,442.6,0.6,437.8,0.6
	 M743.2,29.3c-0.1-1-0.4-1.9-0.8-2.9c-0.4-1-1-1.9-1.8-2.7c-0.8-0.8-1.8-1.5-3.1-2l-0.1-0.3c1-0.5,1.8-1.1,2.4-1.9
	c0.6-0.8,1.1-1.5,1.5-2.3c0.3-0.8,0.6-1.6,0.7-2.3c0.1-0.8,0.2-1.4,0.2-1.9c0-3.8-1.2-6.9-3.5-9.1c-2.3-2.2-5.8-3.3-10.3-3.3
	l-16.9,0.1c-0.6,0-1,0.1-1.2,0.4c-0.2,0.3-0.3,0.6-0.3,1.1v41.5c0,0.4,0.1,0.8,0.3,1.1c0.2,0.3,0.6,0.4,1.2,0.4h18
	c1.8,0,3.6-0.3,5.2-0.9c1.7-0.6,3.1-1.4,4.4-2.6c1.3-1.1,2.3-2.5,3.1-4.2c0.8-1.6,1.1-3.5,1.1-5.6C743.4,31,743.3,30.2,743.2,29.3z
	 M730.2,16.5c-0.8,0.8-1.8,1.1-3.2,1.1h-6.4V9.4h6c1.7,0,2.9,0.4,3.6,1.2c0.7,0.8,1.1,1.8,1.1,3C731.4,14.8,731,15.7,730.2,16.5z
	 M731.5,34.6c-0.7,0.9-2.1,1.4-4,1.4h-6.8v-9.9h6.8c1.8,0,3.1,0.5,3.9,1.5c0.8,1,1.2,2.2,1.2,3.6C732.6,32.6,732.2,33.7,731.5,34.6z
	 M761.7,28.1V1.9c0-0.4-0.1-0.7-0.2-1s-0.5-0.5-1.2-0.5h-7.6c-0.6,0-1,0.1-1.2,0.4c-0.2,0.3-0.3,0.7-0.3,1.1v26.5
	c0,2.5,0.4,4.9,1.1,7s1.9,3.9,3.3,5.5c1.5,1.5,3.3,2.7,5.4,3.5c2.2,0.8,4.6,1.2,7.4,1.2c1.7,0,3.3-0.2,5-0.5
	c1.6-0.3,3.2-0.9,4.6-1.6c1.4-0.7,2.7-1.7,3.8-2.8c1.1-1.2,2-2.6,2.7-4.2c0.5-1.4,0.9-2.7,1-4.1c0.2-1.3,0.2-2.6,0.2-3.9l0.1-26.5
	c0-0.4-0.1-0.7-0.2-1c-0.2-0.3-0.5-0.5-1.2-0.5h-7.6c-0.6,0-1,0.1-1.2,0.4c-0.2,0.3-0.3,0.7-0.3,1.1l0.1,26.2c0,2.8-0.6,4.9-1.8,6.2
	c-1.2,1.3-2.9,2-5.2,2C764,36.4,761.7,33.6,761.7,28.1z M814.9,44.9c2.1-0.5,4-1.2,5.6-2.3c1.6-1.1,2.9-2.5,3.9-4.3
	c1-1.8,1.5-4,1.5-6.6s-0.5-4.8-1.4-6.4c-0.9-1.6-2.1-2.9-3.5-3.9c-1.5-1-3.1-1.7-5-2.3c-1.9-0.5-3.7-1-5.6-1.4
	c-1.1-0.2-2-0.4-2.8-0.6c-0.7-0.2-1.4-0.5-1.8-0.8c-0.5-0.3-0.8-0.7-1-1.1c-0.2-0.4-0.3-1-0.3-1.7c0-1.4,0.5-2.5,1.4-3.1
	c1-0.6,2.4-0.9,4.3-0.9c2,0,3.8,0.1,5.4,0.2c1.6,0.1,3.1,0.3,4.6,0.5c0.4,0,0.8,0.1,1.2,0.1c0.3,0,0.6,0,0.8-0.1
	c0.2-0.1,0.4-0.2,0.5-0.4c0.1-0.2,0.3-0.5,0.3-1l0.9-4c0.1-0.6,0.1-1.2-0.1-1.6c-0.1-0.4-0.8-0.8-1.9-1.2c-1.1-0.4-2.2-0.8-3.4-1.1
	c-1.2-0.3-2.4-0.5-3.6-0.6c-1.2-0.1-2.3-0.2-3.3-0.2c-1,0-1.8,0-2.4,0c-2.4,0-4.7,0.3-6.6,0.9c-2,0.6-3.7,1.5-5.1,2.6
	c-1.4,1.1-2.5,2.6-3.2,4.3c-0.8,1.7-1.1,3.6-1.1,5.8c0,2.4,0.5,4.4,1.4,6c0.9,1.6,2.1,2.8,3.6,3.8c1.5,1,3.1,1.8,5,2.3
	c1.9,0.6,3.7,1,5.6,1.4c1.1,0.2,2,0.5,2.8,0.7c0.8,0.2,1.4,0.5,1.9,0.9c0.5,0.4,0.9,0.8,1.1,1.3c0.2,0.5,0.3,1.2,0.3,2
	c0,1.4-0.5,2.5-1.6,3.2c-1,0.7-2.7,1.1-4.9,1.1c-0.9,0-1.9,0-2.9-0.1c-1-0.1-2-0.1-3.1-0.2c-1-0.1-2-0.2-3-0.3
	c-1-0.1-1.9-0.2-2.6-0.3c-0.9-0.1-1.5-0.2-1.8-0.1c-0.3,0.1-0.6,0.6-0.8,1.5l-0.8,3.9c-0.1,0.6-0.1,1.1,0,1.5
	c0.1,0.4,0.7,0.8,1.9,1.3c1.1,0.4,2.2,0.7,3.4,1c1.2,0.3,2.4,0.5,3.6,0.6c1.2,0.2,2.3,0.3,3.4,0.3c1.1,0.1,1.9,0.1,2.7,0.1
	C810.7,45.6,812.8,45.3,814.9,44.9z M833.6,43.5c0,0.4,0.1,0.8,0.3,1.1c0.2,0.3,0.6,0.4,1.1,0.4h7.8c0.6,0,1-0.2,1.2-0.5
	c0.2-0.3,0.2-0.6,0.2-1V1.9c0-0.4-0.1-0.7-0.2-1c-0.2-0.3-0.5-0.5-1.2-0.5H835c-0.5,0-0.9,0.1-1.1,0.4c-0.2,0.3-0.3,0.7-0.3,1.1
	V43.5z M869.1,28.2c1.7,2.5,3.4,5.1,5,7.6c1.7,2.5,3.4,5.1,5,7.6c0.4,0.5,0.7,0.9,1.1,1.1c0.4,0.3,1,0.4,1.7,0.4h5.4
	c0.5,0,0.9-0.1,1.1-0.4c0.2-0.2,0.3-0.6,0.3-1V2c0-0.5-0.1-0.9-0.3-1.1c-0.2-0.3-0.6-0.4-1.1-0.4h-7.4c-0.6,0-1,0.2-1.2,0.5
	s-0.3,0.7-0.3,1v23.5c-0.1,0-0.1,0-0.1,0c0,0-0.1,0-0.1,0c-0.4-0.5-0.9-1.4-1.7-2.6c-0.8-1.2-1.7-2.6-2.7-4.1c-1-1.5-2-3.1-3.1-4.8
	c-1.1-1.7-2.1-3.3-3.1-4.8c-1-1.5-1.9-2.9-2.7-4.1c-0.8-1.2-1.4-2.1-1.7-2.7c-0.4-0.6-0.7-1-1.1-1.4c-0.4-0.4-1.1-0.5-2.1-0.5h-5.4
	c-0.5,0-0.9,0.1-1.1,0.4c-0.2,0.3-0.3,0.6-0.3,1v41.6c0,0.9,0.5,1.4,1.5,1.4h7.4c0.6,0,0.9-0.1,1.1-0.4c0.2-0.3,0.3-0.6,0.3-1V20
	h0.2L869.1,28.2z M898,43.6c0,0.4,0.1,0.7,0.3,1c0.2,0.3,0.6,0.4,1.2,0.4H926c0.6,0,1-0.1,1.2-0.4c0.2-0.2,0.3-0.6,0.3-1v-6.1
	c0-1-0.5-1.5-1.5-1.5h-17.5v-9.6h15c0.6,0,1-0.1,1.2-0.4c0.2-0.3,0.3-0.6,0.3-1v-6.1c0-0.9-0.5-1.4-1.5-1.4h-15V9.3h17.2
	c0.6,0,1-0.1,1.2-0.4c0.2-0.3,0.3-0.6,0.3-1V1.9c0-1-0.5-1.5-1.4-1.5h-26.3c-0.6,0-1,0.1-1.2,0.4c-0.2,0.3-0.3,0.7-0.3,1.1V43.6z
	 M955.1,44.9c2.1-0.5,4-1.2,5.6-2.3c1.6-1.1,2.9-2.5,3.9-4.3c1-1.8,1.5-4,1.5-6.6s-0.5-4.8-1.4-6.4c-0.9-1.6-2.1-2.9-3.5-3.9
	s-3.1-1.7-5-2.3c-1.9-0.5-3.7-1-5.6-1.4c-1.1-0.2-2-0.4-2.8-0.6c-0.7-0.2-1.4-0.5-1.8-0.8c-0.5-0.3-0.8-0.7-1-1.1
	c-0.2-0.4-0.3-1-0.3-1.7c0-1.4,0.5-2.5,1.4-3.1c1-0.6,2.4-0.9,4.3-0.9c2,0,3.8,0.1,5.4,0.2s3.1,0.3,4.6,0.5c0.4,0,0.8,0.1,1.2,0.1
	c0.3,0,0.6,0,0.8-0.1c0.2-0.1,0.4-0.2,0.5-0.4c0.1-0.2,0.3-0.5,0.3-1l0.9-4c0.1-0.6,0.1-1.2-0.1-1.6c-0.1-0.4-0.8-0.8-1.9-1.2
	c-1.1-0.4-2.2-0.8-3.4-1.1c-1.2-0.3-2.4-0.5-3.6-0.6C954.1,0.1,953,0.1,952,0s-1.8,0-2.4,0c-2.4,0-4.7,0.3-6.6,0.9
	c-2,0.6-3.7,1.5-5.1,2.6c-1.4,1.1-2.5,2.6-3.2,4.3c-0.8,1.7-1.1,3.6-1.1,5.8c0,2.4,0.5,4.4,1.4,6c0.9,1.6,2.1,2.8,3.6,3.8
	c1.5,1,3.1,1.8,5,2.3c1.9,0.6,3.7,1,5.6,1.4c1.1,0.2,2,0.5,2.8,0.7c0.8,0.2,1.4,0.5,1.9,0.9c0.5,0.4,0.9,0.8,1.1,1.3
	c0.2,0.5,0.3,1.2,0.3,2c0,1.4-0.5,2.5-1.6,3.2c-1,0.7-2.7,1.1-4.9,1.1c-0.9,0-1.9,0-2.9-0.1c-1-0.1-2-0.1-3.1-0.2
	c-1-0.1-2-0.2-3-0.3c-1-0.1-1.9-0.2-2.6-0.3c-0.9-0.1-1.5-0.2-1.8-0.1c-0.3,0.1-0.6,0.6-0.8,1.5l-0.8,3.9c-0.1,0.6-0.1,1.1,0,1.5
	c0.1,0.4,0.7,0.8,1.9,1.3c1.1,0.4,2.2,0.7,3.4,1c1.2,0.3,2.4,0.5,3.6,0.6c1.2,0.2,2.3,0.3,3.4,0.3c1.1,0.1,1.9,0.1,2.7,0.1
	C950.9,45.6,953,45.3,955.1,44.9z M993.7,44.9c2.1-0.5,4-1.2,5.6-2.3c1.6-1.1,2.9-2.5,3.9-4.3c1-1.8,1.5-4,1.5-6.6s-0.5-4.8-1.4-6.4
	c-0.9-1.6-2.1-2.9-3.5-3.9c-1.5-1-3.1-1.7-5-2.3c-1.9-0.5-3.7-1-5.6-1.4c-1.1-0.2-2-0.4-2.8-0.6c-0.7-0.2-1.4-0.5-1.8-0.8
	c-0.5-0.3-0.8-0.7-1-1.1c-0.2-0.4-0.3-1-0.3-1.7c0-1.4,0.5-2.5,1.4-3.1c1-0.6,2.4-0.9,4.3-0.9c2,0,3.8,0.1,5.4,0.2
	c1.6,0.1,3.1,0.3,4.6,0.5c0.4,0,0.8,0.1,1.2,0.1c0.3,0,0.6,0,0.8-0.1c0.2-0.1,0.4-0.2,0.5-0.4c0.1-0.2,0.3-0.5,0.3-1l0.9-4
	c0.1-0.6,0.1-1.2-0.1-1.6c-0.1-0.4-0.8-0.8-1.9-1.2c-1.1-0.4-2.2-0.8-3.4-1.1c-1.2-0.3-2.4-0.5-3.6-0.6c-1.2-0.1-2.3-0.2-3.3-0.2
	c-1,0-1.8,0-2.4,0c-2.4,0-4.7,0.3-6.6,0.9c-2,0.6-3.7,1.5-5.1,2.6c-1.4,1.1-2.5,2.6-3.2,4.3c-0.8,1.7-1.1,3.6-1.1,5.8
	c0,2.4,0.5,4.4,1.4,6c0.9,1.6,2.1,2.8,3.6,3.8c1.5,1,3.1,1.8,5,2.3c1.9,0.6,3.7,1,5.6,1.4c1.1,0.2,2,0.5,2.8,0.7
	c0.8,0.2,1.4,0.5,1.9,0.9c0.5,0.4,0.9,0.8,1.1,1.3c0.2,0.5,0.3,1.2,0.3,2c0,1.4-0.5,2.5-1.6,3.2c-1,0.7-2.7,1.1-4.9,1.1
	c-0.9,0-1.9,0-2.9-0.1c-1-0.1-2-0.1-3.1-0.2c-1-0.1-2-0.2-3-0.3c-1-0.1-1.9-0.2-2.6-0.3c-0.9-0.1-1.5-0.2-1.8-0.1
	c-0.3,0.1-0.6,0.6-0.8,1.5l-0.8,3.9c-0.1,0.6-0.1,1.1,0,1.5c0.1,0.4,0.7,0.8,1.9,1.3c1.1,0.4,2.2,0.7,3.4,1c1.2,0.3,2.4,0.5,3.6,0.6
	c1.2,0.2,2.3,0.3,3.4,0.3c1.1,0.1,1.9,0.1,2.7,0.1C989.4,45.6,991.6,45.3,993.7,44.9z M740.7,85.2v-6.1c0-1-0.5-1.5-1.5-1.5h-30.1
	c-0.6,0-1,0.1-1.2,0.4c-0.2,0.3-0.3,0.6-0.3,1.1v6.1c0,0.4,0.1,0.7,0.3,1c0.2,0.3,0.6,0.4,1.2,0.4h9.8v34.2c0,0.4,0.1,0.8,0.3,1.1
	c0.2,0.3,0.6,0.4,1.2,0.4h7.6c0.6,0,1-0.2,1.2-0.5c0.2-0.3,0.2-0.6,0.2-1V86.6h9.8c0.6,0,1-0.1,1.2-0.4S740.7,85.6,740.7,85.2z
	 M770.9,103.5c1.3-0.6,2.5-1.4,3.4-2.3c0.9-0.9,1.7-1.9,2.3-3c0.6-1.1,1-2.2,1.2-3.4c0.3-1.2,0.4-2.3,0.4-3.5c0-2.4-0.4-4.4-1.3-6.1
	c-0.8-1.7-1.9-3.1-3.3-4.2c-1.4-1.1-2.9-1.9-4.7-2.4c-1.7-0.5-3.5-0.8-5.3-0.8h-16.2c-0.6,0-1,0.1-1.2,0.4c-0.2,0.3-0.3,0.6-0.3,1
	v41.6c0,0.4,0.1,0.8,0.3,1.1c0.2,0.3,0.6,0.4,1.2,0.4h7.6c0.6,0,1-0.2,1.2-0.5c0.2-0.3,0.2-0.6,0.2-1v-15.5h4.3l6.8,15.5
	c0.2,0.6,0.5,1,1,1.2c0.4,0.2,1,0.3,1.6,0.3h8.2c0.5,0,0.8-0.2,1-0.5c0.2-0.3,0.1-0.7-0.1-1.2L770.9,103.5z M766.8,94.1
	c-0.4,0.7-0.8,1.2-1.4,1.6c-0.6,0.4-1.2,0.6-1.8,0.7c-0.7,0.1-1.3,0.2-1.9,0.2h-5.3v-10h5.4c1.6,0,2.8,0.4,3.9,1.1
	c1,0.7,1.6,1.9,1.6,3.7C767.3,92.5,767.1,93.4,766.8,94.1z M795,112.2h13.2l2.2,8c0.2,0.7,0.5,1.2,0.7,1.6c0.3,0.3,0.8,0.5,1.5,0.5
	h8.2c0.5,0,0.8-0.1,0.9-0.4c0.1-0.3,0.1-0.7-0.1-1.2l-13.3-40.9c-0.2-0.6-0.5-1.1-0.8-1.5c-0.3-0.4-0.9-0.5-1.8-0.5h-8.4
	c-0.9,0-1.5,0.2-1.8,0.5c-0.3,0.3-0.6,0.8-0.8,1.4L782,120.5c-0.2,0.8-0.2,1.2-0.1,1.4c0.2,0.2,0.5,0.3,1,0.3h7.4
	c0.6,0,1.1-0.1,1.5-0.4c0.4-0.3,0.6-0.8,0.9-1.5L795,112.2z M805.9,104.1h-8.6l2-7.5l2.2-8.1h0.3l2.1,8.2L805.9,104.1z M832.4,79.6
	c-0.2-0.7-0.5-1.2-0.8-1.5c-0.4-0.3-1-0.4-1.9-0.4h-7.1c-0.7,0-1.1,0.2-1.2,0.5c-0.1,0.3-0.1,0.7,0.1,1.2l13.4,41
	c0.2,0.6,0.5,1.1,0.9,1.4c0.4,0.3,1,0.5,1.9,0.5h7.5c1,0,1.7-0.2,2-0.5s0.6-0.8,0.8-1.4l13.5-40.9c0.1-0.4,0.2-0.8,0.2-1.1
	s-0.4-0.5-1-0.5h-7.7c-0.8,0-1.3,0.2-1.7,0.5s-0.7,0.9-0.9,1.5l-4.4,15.4l-4.1,14.7h-0.3l-4.2-14.5L832.4,79.6z M867.1,120.9
	c0,0.4,0.1,0.7,0.3,1c0.2,0.3,0.6,0.4,1.2,0.4h26.6c0.6,0,1-0.1,1.2-0.4c0.2-0.2,0.3-0.6,0.3-1v-6.1c0-1-0.5-1.5-1.5-1.5h-17.5v-9.6
	h15c0.6,0,1-0.1,1.2-0.4c0.2-0.3,0.3-0.6,0.3-1v-6.1c0-0.9-0.5-1.4-1.5-1.4h-15v-8.2h17.2c0.6,0,1-0.1,1.2-0.4
	c0.2-0.3,0.3-0.6,0.3-1v-6.1c0-1-0.5-1.5-1.4-1.5h-26.3c-0.6,0-1,0.1-1.2,0.4c-0.2,0.3-0.3,0.7-0.3,1.1V120.9z M914.7,79.3
	c0-1-0.5-1.5-1.5-1.5h-7.6c-0.5,0-0.9,0.1-1.1,0.4c-0.2,0.3-0.3,0.7-0.3,1.1v41.6c0,0.4,0.1,0.7,0.3,1c0.2,0.3,0.6,0.4,1.2,0.4h26.7
	c0.6,0,1-0.1,1.2-0.4c0.2-0.2,0.3-0.6,0.3-1v-6.4c0-0.8-0.4-1.1-1.2-1.1h-17.8V79.3z M731.5,180.2l-4.9-10.4l-6.4-13.2
	c-0.3-0.6-0.7-1-1-1.2c-0.4-0.2-1-0.4-1.9-0.4h-5.7c-0.5,0-0.9,0.1-1.1,0.4c-0.2,0.3-0.3,0.6-0.3,1v41.6c0,0.4,0.1,0.8,0.3,1.1
	c0.2,0.3,0.6,0.4,1.1,0.4h7.4c0.6,0,1-0.2,1.2-0.5c0.2-0.3,0.2-0.6,0.2-1v-20.6l0.1-0.1l2.3,5.1l4.3,9c0.3,0.5,0.6,0.9,1,1.2
	c0.4,0.3,1,0.4,1.8,0.4h3.3c0.8,0,1.3-0.2,1.7-0.5c0.4-0.3,0.7-0.7,1.1-1.3l4.2-8.6l2.3-5.2l0.2,0.1v20.5c0,0.4,0.1,0.8,0.3,1.1
	c0.2,0.3,0.6,0.4,1.2,0.4h7.4c0.6,0,1-0.2,1.1-0.5c0.1-0.3,0.2-0.6,0.2-1v-41.6c0-0.3-0.1-0.6-0.2-1c-0.1-0.3-0.5-0.5-1.1-0.5h-5.4
	c-0.9,0-1.5,0.1-1.9,0.4c-0.4,0.3-0.7,0.7-1,1.2l-6.4,13l-5,10.5H731.5z M771.1,189.5h13.2l2.2,8c0.2,0.7,0.5,1.2,0.7,1.6
	c0.3,0.3,0.8,0.5,1.5,0.5h8.2c0.5,0,0.8-0.1,0.9-0.4c0.1-0.3,0.1-0.7-0.1-1.2L784.4,157c-0.2-0.6-0.5-1.1-0.8-1.5
	c-0.3-0.4-0.9-0.5-1.8-0.5h-8.4c-0.9,0-1.5,0.2-1.8,0.5c-0.3,0.3-0.6,0.8-0.8,1.4l-12.8,40.9c-0.2,0.8-0.3,1.2-0.1,1.4
	c0.2,0.2,0.5,0.3,1,0.3h7.4c0.6,0,1.1-0.1,1.5-0.4c0.4-0.3,0.6-0.8,0.9-1.5L771.1,189.5z M781.9,181.4h-8.6l2-7.5l2.2-8.1h0.3
	l2.1,8.2L781.9,181.4z M818.5,182.8c1.7,2.5,3.4,5.1,5,7.6c1.7,2.5,3.4,5.1,5,7.6c0.4,0.5,0.7,0.9,1.1,1.1c0.4,0.3,1,0.4,1.7,0.4
	h5.4c0.5,0,0.9-0.1,1.1-0.4s0.3-0.6,0.3-1v-41.5c0-0.5-0.1-0.9-0.3-1.1c-0.2-0.3-0.6-0.4-1.1-0.4h-7.4c-0.6,0-1,0.2-1.2,0.5
	c-0.2,0.3-0.3,0.7-0.3,1v23.5c-0.1,0-0.1,0-0.1,0c0,0-0.1,0-0.1,0c-0.4-0.5-0.9-1.4-1.7-2.6c-0.8-1.2-1.7-2.6-2.7-4.1
	c-1-1.5-2-3.1-3.1-4.8c-1.1-1.7-2.1-3.3-3.1-4.8c-1-1.5-1.9-2.9-2.7-4.1c-0.8-1.2-1.4-2.1-1.7-2.7c-0.4-0.6-0.7-1-1.1-1.4
	c-0.4-0.4-1.1-0.5-2.1-0.5h-5.4c-0.5,0-0.9,0.1-1.1,0.4c-0.2,0.3-0.3,0.6-0.3,1v41.6c0,0.9,0.5,1.4,1.5,1.4h7.4
	c0.6,0,0.9-0.1,1.1-0.4c0.2-0.3,0.3-0.6,0.3-1v-23.5h0.2L818.5,182.8z M856.5,189.5h13.2l2.2,8c0.2,0.7,0.5,1.2,0.7,1.6
	c0.3,0.3,0.8,0.5,1.5,0.5h8.2c0.5,0,0.8-0.1,0.9-0.4c0.1-0.3,0.1-0.7-0.1-1.2L869.9,157c-0.2-0.6-0.5-1.1-0.8-1.5
	c-0.3-0.4-0.9-0.5-1.8-0.5h-8.4c-0.9,0-1.5,0.2-1.8,0.5c-0.3,0.3-0.6,0.8-0.8,1.4l-12.8,40.9c-0.2,0.8-0.2,1.2-0.1,1.4
	c0.2,0.2,0.5,0.3,1,0.3h7.4c0.6,0,1.1-0.1,1.5-0.4c0.4-0.3,0.6-0.8,0.9-1.5L856.5,189.5z M867.4,181.4h-8.6l2-7.5l2.2-8.1h0.3
	l2.1,8.2L867.4,181.4z M898.7,172.2c0.2-1.6,0.7-3.1,1.4-4.3c0.7-1.2,1.6-2.2,2.8-2.8c1.2-0.7,2.7-1,4.6-1c1.4,0,3,0.1,4.7,0.2
	s3.4,0.3,5.3,0.6c0.8,0.1,1.3,0.1,1.6-0.1c0.3-0.1,0.5-0.5,0.6-1.2l0.9-4c0.2-0.8,0.1-1.5-0.3-1.9c-0.4-0.4-0.9-0.7-1.5-1
	c-1.7-0.8-3.7-1.3-5.9-1.6c-2.2-0.3-4.4-0.5-6.5-0.5c-4,0-7.2,0.7-9.7,2c-2.5,1.4-4.4,3.1-5.8,5.3c-1.4,2.2-2.3,4.6-2.8,7.4
	c-0.5,2.7-0.8,5.5-0.8,8.2c0,3,0.3,5.9,0.8,8.7s1.5,5.2,2.9,7.3s3.3,3.8,5.8,5c2.5,1.2,5.6,1.8,9.5,1.8c1,0,2.1,0,3.3-0.1
	c1.2-0.1,2.4-0.2,3.6-0.4c1.2-0.2,2.4-0.4,3.6-0.7c1.2-0.3,2.3-0.6,3.4-1c0.9-0.4,1.5-0.9,1.7-1.5c0.2-0.6,0.3-1.4,0.3-2.1
	c0-4,0.1-7.6,0.1-10.6c0-3.1,0-5.9,0-8.4c0-0.4-0.1-0.7-0.4-1c-0.3-0.3-0.6-0.4-1.1-0.4h-13.1c-0.6,0-1,0.1-1.2,0.4
	c-0.2,0.2-0.3,0.6-0.3,1v5.6c0,0.4,0.1,0.8,0.3,1c0.2,0.2,0.6,0.4,1.2,0.4h4.5v8c-0.7,0.1-1.5,0.2-2.4,0.3c-0.9,0.1-1.7,0.1-2.5,0.1
	c-1.9,0-3.4-0.3-4.5-1c-1.1-0.7-2-1.7-2.6-2.9c-0.6-1.2-1.1-2.7-1.3-4.3c-0.2-1.7-0.3-3.4-0.3-5.4
	C898.3,175.5,898.4,173.8,898.7,172.2z M930.5,198.2c0,0.4,0.1,0.7,0.3,1c0.2,0.3,0.6,0.4,1.2,0.4h26.6c0.6,0,1-0.1,1.2-0.4
	c0.2-0.2,0.3-0.6,0.3-1v-6.1c0-1-0.5-1.5-1.5-1.5H941V181h15c0.6,0,1-0.1,1.2-0.4s0.3-0.6,0.3-1v-6.1c0-0.9-0.5-1.4-1.5-1.4h-15V164
	h17.2c0.6,0,1-0.1,1.2-0.4c0.2-0.3,0.3-0.6,0.3-1v-6.1c0-1-0.5-1.5-1.4-1.5H932c-0.6,0-1,0.1-1.2,0.4c-0.2,0.3-0.3,0.7-0.3,1.1
	V198.2z M988.9,180.2l-4.9-10.4l-6.4-13.2c-0.3-0.6-0.7-1-1-1.2c-0.4-0.2-1-0.4-1.9-0.4h-5.7c-0.5,0-0.9,0.1-1.1,0.4
	c-0.2,0.3-0.3,0.6-0.3,1v41.6c0,0.4,0.1,0.8,0.3,1.1c0.2,0.3,0.6,0.4,1.1,0.4h7.4c0.6,0,1-0.2,1.2-0.5c0.2-0.3,0.2-0.6,0.2-1v-20.6
	l0.1-0.1l2.3,5.1l4.3,9c0.3,0.5,0.6,0.9,1,1.2c0.4,0.3,1,0.4,1.8,0.4h3.3c0.8,0,1.3-0.2,1.7-0.5c0.4-0.3,0.7-0.7,1.1-1.3l4.2-8.6
	l2.3-5.2l0.2,0.1v20.5c0,0.4,0.1,0.8,0.3,1.1c0.2,0.3,0.6,0.4,1.2,0.4h7.4c0.6,0,1-0.2,1.1-0.5c0.1-0.3,0.2-0.6,0.2-1v-41.6
	c0-0.3-0.1-0.6-0.2-1c-0.1-0.3-0.5-0.5-1.1-0.5h-5.4c-0.9,0-1.5,0.1-1.9,0.4c-0.4,0.3-0.7,0.7-1,1.2l-6.4,13l-5,10.5H988.9z
	 M1019.3,198.2c0,0.4,0.1,0.7,0.3,1c0.2,0.3,0.6,0.4,1.2,0.4h26.6c0.6,0,1-0.1,1.2-0.4c0.2-0.2,0.3-0.6,0.3-1v-6.1
	c0-1-0.5-1.5-1.5-1.5h-17.5V181h15c0.6,0,1-0.1,1.2-0.4c0.2-0.3,0.3-0.6,0.3-1v-6.1c0-0.9-0.5-1.4-1.5-1.4h-15V164h17.2
	c0.6,0,1-0.1,1.2-0.4c0.2-0.3,0.3-0.6,0.3-1v-6.1c0-1-0.5-1.5-1.4-1.5h-26.3c-0.6,0-1,0.1-1.2,0.4c-0.2,0.3-0.3,0.7-0.3,1.1V198.2z
	 M1071.9,182.8c1.7,2.5,3.4,5.1,5,7.6c1.7,2.5,3.4,5.1,5,7.6c0.4,0.5,0.7,0.9,1.1,1.1c0.4,0.3,1,0.4,1.7,0.4h5.4
	c0.5,0,0.9-0.1,1.1-0.4c0.2-0.2,0.3-0.6,0.3-1v-41.5c0-0.5-0.1-0.9-0.3-1.1c-0.2-0.3-0.6-0.4-1.1-0.4h-7.4c-0.6,0-1,0.2-1.2,0.5
	c-0.2,0.3-0.3,0.7-0.3,1v23.5c0,0-0.1,0-0.1,0c0,0-0.1,0-0.1,0c-0.4-0.5-0.9-1.4-1.7-2.6c-0.8-1.2-1.7-2.6-2.6-4.1
	c-1-1.5-2-3.1-3.1-4.8c-1.1-1.7-2.1-3.3-3.1-4.8c-1-1.5-1.9-2.9-2.7-4.1c-0.8-1.2-1.4-2.1-1.7-2.7c-0.4-0.6-0.7-1-1.1-1.4
	c-0.4-0.4-1.1-0.5-2.1-0.5h-5.4c-0.5,0-0.9,0.1-1.1,0.4c-0.2,0.3-0.3,0.6-0.3,1v41.6c0,0.9,0.5,1.4,1.5,1.4h7.4c0.6,0,1-0.1,1.1-0.4
	c0.2-0.3,0.3-0.6,0.3-1v-23.5h0.2L1071.9,182.8z M1130,162.6v-6.1c0-1-0.5-1.5-1.5-1.5h-30.1c-0.6,0-1,0.1-1.2,0.4
	c-0.2,0.3-0.3,0.6-0.3,1.1v6.1c0,0.4,0.1,0.7,0.3,1c0.2,0.3,0.6,0.4,1.2,0.4h9.8v34.2c0,0.4,0.1,0.8,0.3,1.1
	c0.2,0.3,0.6,0.4,1.2,0.4h7.6c0.6,0,1-0.2,1.2-0.5c0.2-0.3,0.2-0.6,0.2-1V164h9.8c0.6,0,1-0.1,1.2-0.4
	C1129.9,163.3,1130,163,1130,162.6z M529.3,143.3l19.7,47.9c1.2,2.6,2.9,4.6,5.2,6.1s5.7,2.2,10.5,2.2h45.9c3.3,0,5.8-0.7,7.3-2.1
	c1.5-1.4,2.6-3.1,3.3-5.1L680.6,7.6c0.6-2,0.6-3.7-0.1-5.1c-0.7-1.4-2.7-2.1-6-2.1h-60.8c-3.6,0-6,0.9-7.3,2.7
	c-1.3,1.8-2.3,3.3-2.9,4.5l-29,89.9l-1.4,0.3l-17.2-40.4L535.2,7.6c-1.2-2.4-2.6-4.2-4.2-5.4c-1.6-1.2-5.1-1.8-10.5-1.8h-46.2
	c-3.3,0-5.8,0.7-7.5,2.1c-1.7,1.4-2.8,3.1-3.5,5.1l-59.5,184.9c-0.6,2-0.6,3.7,0.3,5.1c0.8,1.4,2.9,2.1,6.2,2.1h60.8
	c3.6,0,6-0.9,7.3-2.7c1.3-1.8,2.2-3.3,2.5-4.5l29.7-93.2h1.1L529.3,143.3z"/>
</svg>
