<?xml version="1.0" standalone="no"?>
<!DOCTYPE svg PUBLIC "-//W3C//DTD SVG 20010904//EN"
 "http://www.w3.org/TR/2001/REC-SVG-20010904/DTD/svg10.dtd">
<svg version="1.0" xmlns="http://www.w3.org/2000/svg"
 width="512.000000pt" height="512.000000pt" viewBox="0 0 512.000000 512.000000"
 preserveAspectRatio="xMidYMid meet">
<metadata>
Created by potrace 1.16, written by Peter Selinger 2001-2019
</metadata>
<g transform="translate(0.000000,512.000000) scale(0.100000,-0.100000)"
fill="#c497f7" stroke="none">
<path d="M187 4932 c-147 -147 -188 -194 -185 -211 2 -18 40 15 213 189 175
175 206 210 185 210 -19 0 -69 -44 -213 -188z"/>
<path d="M287 4832 c-227 -227 -288 -294 -285 -311 2 -17 59 35 313 289 255
255 305 310 285 310 -20 0 -89 -64 -313 -288z"/>
<path d="M387 4732 c-307 -307 -388 -393 -385 -411 2 -17 79 55 413 389 335
335 405 410 385 410 -20 0 -109 -84 -413 -388z"/>
<path d="M487 4632 c-388 -388 -488 -493 -485 -511 2 -17 99 74 513 489 415
415 505 510 485 510 -20 0 -129 -104 -513 -488z"/>
<path d="M587 4532 c-468 -468 -588 -593 -585 -611 2 -17 118 94 613 589 495
495 605 610 585 610 -20 0 -149 -124 -613 -588z"/>
<path d="M687 4432 c-548 -548 -688 -693 -685 -711 2 -17 138 114 713 689 575
575 705 710 685 710 -20 0 -169 -144 -713 -688z"/>
<path d="M787 4332 c-629 -629 -788 -793 -785 -811 2 -17 158 133 813 789 655
655 805 810 785 810 -20 0 -189 -164 -813 -788z"/>
<path d="M887 4232 c-709 -709 -888 -893 -885 -911 2 -17 177 153 913 889 735
735 905 910 885 910 -20 0 -209 -184 -913 -888z"/>
<path d="M987 4132 c-789 -789 -988 -993 -985 -1011 2 -17 197 173 1013 989
815 815 1005 1010 985 1010 -20 0 -229 -204 -1013 -988z"/>
<path d="M1087 4032 c-870 -870 -1088 -1093 -1085 -1111 2 -17 217 193 1113
1089 895 895 1105 1110 1085 1110 -20 0 -249 -224 -1113 -1088z"/>
<path d="M2311 5056 c-46 -47 -87 -75 -154 -109 -167 -83 -300 -216 -383 -382
l-45 -90 -864 -865 c-684 -684 -865 -870 -865 -890 0 -20 165 140 854 829
l854 854 -14 -59 c-7 -32 -14 -73 -14 -89 0 -26 -102 -132 -840 -870 -665
-665 -840 -845 -840 -865 0 -20 161 136 840 815 l840 840 0 -75 0 -75 -840
-840 c-665 -665 -840 -845 -840 -865 0 -20 161 136 840 815 l840 840 0 -75 0
-75 -840 -840 c-665 -665 -840 -845 -840 -865 0 -20 161 136 838 813 l838 838
11 -63 11 -63 -849 -850 c-671 -672 -849 -855 -849 -875 0 -20 165 140 853
828 l854 854 20 -55 20 -55 -874 -874 c-691 -691 -873 -878 -873 -898 0 -20
110 85 586 560 413 413 569 563 529 510 -31 -41 -81 -124 -111 -185 l-55 -110
-475 -475 c-371 -372 -474 -480 -474 -500 0 -20 87 62 463 438 l464 464 -22
-97 -21 -96 -442 -442 c-346 -346 -442 -447 -442 -467 0 -20 82 57 440 415
l440 440 0 -75 0 -75 -440 -440 c-345 -345 -440 -445 -440 -465 0 -20 81 56
440 415 l440 440 0 -75 0 -75 -440 -440 c-345 -345 -440 -445 -440 -465 0 -20
81 56 439 414 l439 439 4 -69 4 -69 -145 -143 c-80 -79 -151 -149 -158 -155
-6 -7 -140 -143 -297 -303 -217 -220 -286 -296 -286 -314 0 -20 36 11 202 175
128 127 188 182 166 150 -20 -27 -92 -131 -161 -230 -68 -99 -143 -201 -166
-226 -23 -26 -41 -56 -41 -70 0 -22 2 -21 38 14 38 37 39 37 56 18 10 -11 32
-23 48 -26 l30 -7 -86 -87 c-61 -62 -86 -93 -86 -111 0 -21 17 -8 113 88 l112
112 75 0 75 0 -188 -188 c-142 -142 -187 -193 -187 -212 0 -21 37 12 213 188
l212 212 75 0 75 0 -260 -260 c-215 -215 -256 -260 -235 -260 20 0 84 59 285
260 l260 260 75 0 75 0 -260 -260 c-215 -215 -256 -260 -235 -260 20 0 84 59
285 260 l260 260 75 0 75 0 -260 -260 c-215 -215 -256 -260 -235 -260 20 0 84
59 285 260 143 143 263 260 267 260 5 0 8 -30 8 -67 l0 -68 -192 -192 c-160
-160 -189 -193 -168 -193 19 0 66 41 192 167 l168 168 0 -75 0 -75 -92 -92
c-80 -80 -89 -93 -68 -93 17 0 45 21 91 66 l66 65 17 -25 c12 -19 25 -26 48
-26 l32 0 -39 -40 c-37 -38 -38 -40 -15 -40 16 0 43 19 80 55 30 30 76 65 100
77 33 17 48 32 55 55 6 18 21 43 33 56 l23 24 49 -26 49 -26 -107 -107 c-92
-93 -103 -108 -82 -108 19 0 52 26 124 99 l99 100 50 -26 50 -25 -74 -74 c-65
-65 -71 -74 -49 -74 17 0 45 21 91 66 l66 66 34 -17 c63 -32 63 -35 22 -77
-36 -37 -37 -38 -12 -38 16 0 39 14 64 40 21 22 45 40 52 40 7 0 24 17 37 37
13 21 78 91 143 156 l119 118 57 -18 56 -18 -177 -177 c-148 -149 -173 -178
-152 -178 19 0 68 43 205 180 l180 180 75 0 75 0 -180 -180 c-151 -151 -176
-180 -155 -180 19 0 68 43 205 180 l180 180 75 0 75 0 -180 -180 c-151 -151
-176 -180 -155 -180 19 0 68 43 205 180 l180 180 75 0 75 0 -180 -180 c-151
-151 -176 -180 -155 -180 19 0 68 43 205 180 173 173 181 180 220 180 75 1
168 65 195 136 7 19 17 24 42 24 31 0 20 -13 -227 -260 -215 -215 -256 -260
-235 -260 20 0 84 59 285 260 l260 260 75 0 75 0 -260 -260 c-214 -215 -255
-260 -235 -260 20 0 120 95 465 440 l440 440 75 0 75 0 -100 -100 -100 -100
-57 0 c-46 0 -61 -4 -78 -22 -22 -24 -28 -92 -9 -104 7 -4 -98 -116 -262 -280
-226 -226 -269 -274 -249 -274 20 0 84 59 285 260 l260 260 75 0 75 0 -260
-260 c-215 -215 -256 -260 -235 -260 20 0 84 59 285 260 228 228 264 260 291
260 38 0 64 27 64 66 0 24 23 52 133 162 l132 132 75 0 75 0 -90 -91 c-50 -50
-104 -96 -122 -104 -17 -7 -34 -24 -38 -37 -4 -12 -147 -164 -318 -335 -257
-257 -307 -313 -287 -313 20 0 89 64 310 285 282 283 284 284 305 265 11 -10
33 -22 49 -26 27 -7 22 -13 -230 -265 -214 -214 -255 -259 -234 -259 20 0 84
59 285 260 l260 260 75 0 75 0 -260 -260 c-215 -215 -256 -260 -235 -260 20 0
84 59 285 260 l260 260 75 0 75 0 -260 -260 c-215 -215 -256 -260 -235 -260
20 0 84 59 285 260 l260 260 75 0 75 0 -260 -260 c-215 -215 -256 -260 -235
-260 20 0 84 59 285 260 l260 260 75 0 75 0 -260 -260 c-215 -215 -255 -260
-235 -260 36 0 640 604 640 640 0 24 0 24 -33 -8 l-34 -33 -25 49 -26 50 59
58 c41 40 59 66 59 83 0 23 -7 19 -68 -42 -37 -37 -70 -67 -73 -67 -4 0 -19
19 -34 41 l-27 42 101 101 c73 74 101 108 101 126 0 21 -16 8 -112 -87 l-113
-112 -27 39 c-16 21 -28 42 -28 47 0 4 63 71 140 148 105 105 140 146 140 165
0 21 -24 1 -154 -129 l-153 -153 -31 44 -31 45 185 184 c141 140 184 190 184
209 0 21 -32 -7 -195 -170 -107 -107 -196 -192 -198 -190 -1 3 -16 22 -31 44
l-29 38 227 227 c173 173 226 232 226 251 0 21 -41 -16 -233 -208 -127 -127
-235 -232 -239 -232 -4 0 -20 18 -35 41 l-27 40 267 267 c206 206 267 273 267
292 0 20 -50 -25 -279 -254 -253 -253 -280 -277 -290 -259 -5 11 -24 26 -41
33 l-32 13 321 321 c249 249 321 327 321 346 0 20 -63 -38 -343 -318 l-342
-342 -58 12 c-31 7 -57 15 -57 18 0 3 180 185 400 405 313 313 400 405 400
425 0 20 -78 -53 -424 -399 l-424 -424 -62 13 -62 13 486 486 c381 381 486
491 486 511 0 20 -95 -70 -507 -481 l-508 -506 -53 13 c-30 7 -55 14 -57 16
-3 2 23 31 56 64 54 54 63 59 104 59 61 1 85 24 85 84 l0 46 440 440 c345 345
440 445 440 465 0 20 -81 -56 -440 -415 l-440 -440 0 75 0 75 440 440 c345
345 440 445 440 465 0 20 -81 -56 -440 -415 l-440 -440 0 75 0 75 440 440
c345 345 440 445 440 465 0 20 -81 -56 -439 -414 -346 -346 -440 -435 -444
-420 -3 11 -8 39 -11 64 l-6 45 450 450 c353 353 450 455 450 475 0 20 -84
-59 -455 -430 -439 -439 -454 -453 -464 -428 -5 14 -12 41 -16 59 -6 34 0 40
465 504 369 369 470 475 470 495 0 20 -89 -64 -480 -455 l-479 -479 -20 44
c-11 25 -21 50 -21 55 0 6 225 235 500 510 393 393 500 505 500 525 0 20 -96
-71 -512 -487 l-513 -512 -27 48 -26 48 539 539 c425 424 539 544 539 564 0
20 -103 -78 -550 -525 l-550 -550 -29 35 c-17 19 -30 40 -31 45 0 6 261 271
580 590 457 457 580 585 580 605 0 20 -112 -87 -595 -570 l-595 -595 -37 38
-38 37 633 633 c498 498 632 637 632 657 0 20 -123 -98 -644 -619 -641 -641
-645 -644 -668 -628 -13 9 -32 23 -43 32 -19 15 10 45 668 703 542 542 687
692 687 712 0 20 -134 -109 -702 -677 l-703 -702 -34 25 c-19 13 -40 25 -45
28 -6 2 325 341 737 752 590 592 747 754 747 774 0 20 -147 -122 -763 -738
l-763 -763 -53 22 -53 22 816 816 c645 645 816 821 816 841 0 20 -161 -136
-832 -807 l-833 -833 -58 18 -57 17 890 890 c705 705 890 895 890 915 0 20
-175 -150 -908 -883 -601 -601 -914 -907 -927 -907 -11 0 -30 3 -42 6 -21 6
-20 9 23 60 24 30 51 69 60 87 9 17 395 411 857 875 680 680 837 842 817 842
-20 0 -191 -166 -818 -792 -507 -507 -789 -782 -782 -763 6 16 18 61 26 100
l15 70 692 693 c559 559 687 692 667 692 -20 0 -166 -141 -692 -667 l-668
-668 0 75 0 75 592 592 c480 480 588 593 568 593 -20 0 -146 -121 -592 -567
l-568 -568 0 75 0 75 492 492 c400 400 488 493 468 493 -20 0 -126 -101 -491
-466 l-466 -466 -6 68 -6 69 397 398 c324 324 392 397 372 397 -19 0 -108 -83
-401 -376 l-377 -377 -18 57 -18 57 319 319 c262 262 315 320 295 320 -19 0
-93 -68 -326 -301 l-302 -302 -25 49 -26 49 252 253 c208 208 247 252 227 252
-19 0 -80 -55 -263 -237 -218 -218 -239 -236 -249 -218 -7 11 -22 29 -35 40
l-22 20 197 198 c162 163 193 197 172 197 -28 0 -233 -196 -681 -652 l-214
-217 -45 10 c-25 5 -52 12 -60 15 -9 3 127 146 405 424 342 342 415 420 395
420 -19 0 -115 -90 -437 -412 l-413 -413 -45 24 c-25 13 -45 27 -45 30 0 4
107 112 238 240 130 128 242 238 249 245 6 6 71 73 144 149 112 115 129 137
109 137 -18 0 -54 -29 -128 -102 -89 -89 -104 -101 -113 -85 -5 9 -24 24 -41
33 l-31 16 69 69 c61 61 66 69 44 69 -17 0 -45 -20 -87 -62 l-62 -61 -56 13
c-30 7 -55 16 -55 19 0 3 19 25 42 48 40 41 41 43 17 43 -16 0 -39 -15 -67
-42 l-41 -43 -72 3 -71 4 38 39 c37 38 37 39 13 39 -16 0 -39 -14 -64 -40 -29
-29 -47 -40 -70 -40 -16 0 -56 -7 -89 -14 l-58 -14 53 54 c49 50 51 54 28 54
-17 0 -44 -19 -88 -64z m-15 -415 c-247 -247 -248 -248 -339 -232 l-37 6 214
214 c193 193 218 215 262 227 27 7 67 13 89 13 l40 1 -229 -229z m384 223 l32
-7 -193 -193 c-155 -155 -199 -194 -220 -194 -15 0 -51 -11 -81 -25 -113 -53
-99 -31 132 200 245 245 234 238 330 219z m180 -54 c3 0 -94 -99 -215 -220
l-219 -219 -24 22 c-56 52 -61 43 154 258 l197 198 51 -20 c28 -10 53 -19 56
-19z m301 -268 c12 -22 5 -31 -121 -157 l-133 -133 -56 -4 c-106 -7 -108 -10
85 183 l179 179 17 -22 c9 -13 23 -33 29 -46z m49 -93 c12 -29 11 -32 -25 -69
-21 -21 -65 -52 -99 -68 -117 -57 -117 -50 -6 62 57 58 108 106 111 106 4 0
12 -14 19 -31z m-919 -185 c11 -13 -18 -46 -212 -240 -215 -215 -224 -223
-230 -197 -4 16 -7 46 -8 68 -1 39 3 45 157 197 137 136 163 158 207 171 66
20 70 20 86 1z m-321 -149 l-125 -125 -3 71 -3 72 53 54 52 53 76 0 75 0 -125
-125z m407 79 l45 -27 -268 -268 c-148 -148 -271 -265 -275 -261 -4 4 -12 30
-17 57 l-11 50 237 238 c130 130 238 237 240 237 2 0 24 -12 49 -26z m376
-496 l-523 -523 -37 38 -38 37 425 425 c320 320 432 426 455 431 36 7 182 75
210 97 11 9 22 17 25 17 3 0 -230 -235 -517 -522z m527 394 l0 -67 -475 -475
-475 -475 -37 38 -38 37 505 505 c278 278 508 505 512 505 5 0 8 -30 8 -68z
m-723 14 c1 -1 -137 -141 -306 -310 l-309 -309 -21 41 c-12 23 -21 47 -21 54
0 7 124 137 277 290 l276 276 51 -20 c28 -11 52 -21 53 -22z m-177 -380 l-351
-351 -34 40 -35 40 321 320 320 321 65 -10 65 -10 -351 -350z m158 -43 l-408
-408 -37 38 -38 37 365 365 364 364 76 4 c41 1 77 4 80 5 3 1 -178 -181 -402
-405z m740 211 l-5 -76 -413 -413 c-290 -290 -417 -411 -429 -408 -10 2 -31
15 -47 28 l-29 24 460 460 c253 254 462 461 464 461 2 0 1 -34 -1 -76z m-22
-205 c-8 -35 -21 -80 -30 -99 -9 -21 -128 -148 -308 -327 l-294 -293 -60 0
c-33 0 -64 3 -68 7 -4 4 168 182 381 395 213 213 389 386 391 384 1 -2 -4 -32
-12 -67z m-1463 -283 l24 -44 -86 -85 c-65 -63 -103 -92 -155 -116 -88 -40
-175 -93 -245 -149 -31 -24 52 64 184 197 132 132 243 241 247 241 3 0 17 -20
31 -44z m59 -409 c-59 -59 -106 -98 -130 -106 -63 -22 -182 -102 -254 -169
-73 -69 -160 -191 -201 -282 -18 -40 -51 -80 -117 -145 l-92 -90 7 48 c18 128
8 115 364 471 l329 329 69 18 c128 33 129 30 25 -74z m68 -131 l-80 -81 0 36
c0 23 -7 42 -20 54 -21 19 -20 19 77 117 l98 98 3 -72 3 -72 -81 -80z m1328
213 c26 -7 50 -15 54 -18 4 -4 -40 -54 -98 -111 -77 -76 -105 -98 -100 -80 4
14 10 52 13 85 5 51 11 65 41 98 20 20 38 37 40 37 2 0 24 -5 50 -11z m165
-52 l47 -22 -744 -744 c-715 -715 -746 -744 -764 -728 -10 9 -27 17 -38 17
-10 0 -24 4 -31 8 -14 9 1005 1030 1051 1052 15 8 44 37 65 64 36 50 350 377
361 375 3 0 26 -10 53 -22z m-1743 -10 c0 -1 -122 -124 -271 -272 l-272 -270
38 70 c102 192 249 339 439 441 62 34 66 36 66 31z m973 -1029 l-948 -948 -75
0 -75 0 170 170 c133 133 175 170 196 170 36 0 79 42 79 77 0 24 115 143 752
780 l752 752 49 -26 48 -27 -948 -948z m292 929 c-15 -48 -33 -70 -155 -192
l-138 -138 -27 22 c-15 11 -39 21 -54 21 -23 0 -15 10 69 96 56 55 118 107
150 125 30 16 80 51 110 78 30 27 57 47 59 46 2 -2 -4 -28 -14 -58z m727 -33
c21 -15 38 -29 38 -33 0 -3 -318 -324 -707 -713 -707 -707 -708 -708 -749
-708 -52 0 -78 -26 -79 -81 -1 -37 -9 -48 -135 -174 l-135 -135 -75 0 -75 0
935 935 c514 514 937 935 939 935 3 0 22 -12 43 -26z m-2118 -595 l-499 -499
-3 72 -3 72 113 113 c103 104 116 113 150 113 47 0 74 28 83 84 6 38 32 66
313 349 l307 307 19 -56 18 -56 -498 -499z m2226 496 l34 -35 -294 -295 c-252
-252 -299 -295 -324 -295 -39 0 -66 -26 -66 -64 0 -28 -41 -72 -354 -385
l-354 -354 -47 28 -48 27 704 704 c387 387 706 704 710 704 3 0 20 -16 39 -35z
m-1195 -65 c-44 -44 -86 -80 -94 -80 -9 0 -35 7 -59 17 l-43 16 63 64 62 63
75 0 76 0 -80 -80z m-483 -13 l27 -42 -621 -621 -621 -622 -81 -17 c-44 -10
-88 -20 -96 -23 -8 -2 36 47 98 110 111 112 115 115 157 114 60 -1 85 23 85
83 l0 46 507 507 c280 280 510 508 513 508 3 -1 17 -20 32 -43z m-312 20 c0
-1 -79 -81 -176 -177 -163 -161 -174 -171 -149 -123 59 110 158 210 276 278
44 25 49 27 49 22z m2084 -48 l29 -41 -239 -239 -239 -239 -75 0 -75 0 280
280 c154 154 282 280 285 280 3 0 18 -19 34 -41z m-1030 -72 c14 -10 -58 -86
-501 -528 l-518 -515 -69 4 -69 4 444 444 c244 244 451 444 460 444 21 0 59
37 59 58 0 9 35 51 77 94 l77 77 12 -35 c7 -20 19 -41 28 -47z m-1156 -584
l-542 -542 -89 -21 c-49 -11 -92 -20 -95 -20 -4 0 263 270 593 600 l600 600
37 -37 38 -37 -542 -543z m2114 315 l-177 -178 -75 0 -75 0 224 224 225 225
27 -47 28 -47 -177 -177z m-1920 -321 l-478 -478 -85 -19 c-46 -11 -88 -20
-94 -20 -5 0 226 236 513 523 l524 524 49 -26 49 -26 -478 -478z m612 447 c28
-6 10 -25 -415 -450 -434 -434 -444 -444 -489 -449 -25 -3 -63 -8 -85 -11 -39
-5 -26 9 425 461 463 464 465 466 500 460 19 -3 48 -8 64 -11z m1520 -34 c9
-22 16 -46 16 -53 0 -6 -46 -58 -102 -114 l-103 -103 -75 0 -75 0 155 155 c85
85 158 155 161 155 4 0 14 -18 23 -40z m51 -181 c6 -44 6 -44 -64 -114 l-71
-69 0 31 c0 22 -7 38 -24 50 l-25 18 82 83 c89 90 89 90 102 1z m-2841 17 c-4
-26 -2 -52 6 -66 11 -21 6 -29 -85 -119 l-96 -96 6 80 7 80 81 83 c45 45 83
82 84 82 1 0 0 -20 -3 -44z m2632 -474 l-232 -233 -68 7 -68 7 294 294 293
293 6 -67 7 -68 -232 -233z m-701 218 c3 -5 30 -10 58 -10 l52 0 -364 -364
-364 -364 -44 31 -44 31 343 343 c189 189 346 343 350 343 4 0 10 -4 13 -10z
m45 -275 c-194 -195 -277 -271 -310 -286 -75 -33 -191 -105 -257 -158 -35 -28
-63 -48 -63 -44 0 5 168 176 372 380 l373 373 75 0 75 0 -265 -265z m242 42
l-224 -224 -100 -25 -100 -25 248 248 249 249 75 0 75 0 -223 -223z m208 9
l-215 -214 -80 -6 -80 -6 220 220 220 220 75 0 75 0 -215 -214z m292 -109
l-149 -149 -62 13 -63 12 209 209 208 208 3 -72 3 -72 -149 -149z m83 -114
l-70 -72 -45 10 c-25 5 -51 12 -59 15 -10 3 25 45 110 130 l124 124 5 -67 5
-68 -70 -72z m-2540 -343 l-180 -180 -75 0 -75 0 171 171 171 171 74 8 c41 4
78 8 84 9 5 0 -71 -80 -170 -179z m320 170 l50 0 -175 -175 -175 -175 -75 0
-75 0 180 180 c141 142 184 180 200 176 11 -3 42 -6 70 -6z m1485 -165 l-175
-175 -75 0 -75 0 175 175 175 175 75 0 75 0 -175 -175z m323 168 l39 -6 -168
-168 -169 -169 -75 0 -75 0 175 175 c188 188 181 184 273 168z m-533 -178
c-146 -146 -169 -165 -197 -165 -43 0 -73 -30 -73 -73 0 -27 -12 -45 -80 -112
l-80 -80 0 75 0 75 199 199 199 198 78 24 c44 12 88 23 99 23 14 1 -32 -51
-145 -164z m680 150 c19 -4 39 -10 44 -12 4 -3 -59 -72 -140 -154 l-149 -149
-75 0 -75 0 165 165 c102 103 170 163 180 161 8 -3 31 -8 50 -11z m-2490 -160
l-165 -165 -75 0 -75 0 143 143 142 143 93 21 c50 11 94 21 97 22 3 0 -69 -73
-160 -164z m2657 122 l53 -12 -133 -133 -132 -132 -75 0 -75 0 145 145 c80 80
149 145 155 145 5 -1 34 -6 62 -13z m-2887 -152 l-135 -135 -75 0 -75 0 114
114 113 113 87 21 c47 11 90 20 96 21 5 0 -51 -60 -125 -134z m3056 114 l46
-12 -113 -113 -114 -114 -75 0 -75 0 125 125 c69 69 133 125 143 125 10 0 39
-5 63 -11z m-1892 -150 l-99 -99 -75 0 -75 0 124 124 124 125 50 -26 50 -25
-99 -99z m601 1 l-150 -150 -3 42 c-3 41 -1 45 49 91 49 43 115 89 209 145 19
11 37 21 40 21 3 1 -63 -67 -145 -149z m1442 114 c21 -4 42 -9 47 -12 4 -2
-34 -47 -85 -98 l-94 -94 -75 0 -75 0 110 110 c61 61 115 108 122 106 6 -3 29
-8 50 -12z m-3438 -110 l-105 -105 -58 3 -57 3 44 60 c67 91 83 102 177 124
47 10 89 20 95 20 5 1 -38 -46 -96 -105z m3593 76 c21 -6 40 -16 44 -21 3 -6
-24 -42 -62 -80 l-68 -69 -76 0 -75 0 90 90 c49 50 94 90 100 90 5 0 27 -5 47
-10z m-2022 -40 l35 -29 -55 -55 -54 -56 -75 0 -76 0 85 85 c47 47 89 85 95
85 5 0 26 -14 45 -30z m110 -119 c0 -33 -13 -48 -170 -206 l-170 -170 -71 3
-72 4 94 94 94 94 52 0 c73 0 96 23 91 90 -3 48 -1 51 51 104 52 53 55 54 77
39 18 -11 24 -25 24 -52z m-137 -373 c-76 -76 -141 -138 -144 -138 -9 0 -27
49 -31 82 -3 24 19 50 152 183 l155 155 3 -72 3 -72 -138 -138z m542 194 l45
-7 -145 -145 -145 -145 0 75 0 75 87 87 c65 65 90 85 99 77 7 -6 33 -14 59
-17z m-2250 -102 l-100 -100 -75 0 -75 0 100 100 100 100 75 0 75 0 -100 -100z
m200 0 l-100 -100 -75 0 -75 0 100 100 100 100 75 0 75 0 -100 -100z m205 53
c0 -44 -4 -52 -52 -100 l-52 -53 -75 0 -76 0 100 100 c78 79 106 100 127 100
27 0 28 -2 28 -47z m330 -118 l-165 -165 -3 72 -3 72 93 93 93 93 75 0 75 0
-165 -165z m310 137 c0 -22 -43 -70 -240 -267 l-240 -240 0 75 0 75 192 192
193 193 47 0 c46 0 48 -1 48 -28z m360 -67 c-93 -93 -95 -95 -142 -95 -46 0
-48 1 -48 27 0 20 17 45 67 95 l67 68 76 0 75 0 -95 -95z m915 -85 l-180 -180
-67 0 c-38 0 -68 3 -68 7 0 4 78 85 172 180 l173 173 75 0 75 0 -180 -180z
m280 80 l-100 -100 -71 0 c-82 0 -98 -11 -109 -77 -8 -52 -28 -70 -85 -79
l-45 -6 180 181 180 181 75 0 75 0 -100 -100z m200 0 l-100 -100 -75 0 -75 0
100 100 100 100 75 0 75 0 -100 -100z m155 -45 c-141 -141 -145 -145 -148
-115 -2 17 -13 37 -27 48 l-24 17 97 98 97 97 75 0 75 0 -145 -145z m433 33
c-89 -89 -115 -110 -125 -100 -6 6 -35 12 -62 12 l-51 0 100 100 100 100 75 0
75 0 -112 -112z m417 17 l-95 -95 -75 0 -75 0 95 95 95 95 75 0 75 0 -95 -95z
m241 74 c10 -19 3 -29 -62 -95 l-73 -74 -76 0 -75 0 95 95 c90 90 97 95 137
95 33 0 45 -5 54 -21z m-3113 -346 c-85 -85 -119 -113 -138 -113 -41 0 -70
-26 -70 -64 0 -22 -8 -40 -25 -56 -24 -23 -25 -23 -45 -5 -12 11 -36 19 -56
19 -34 0 -30 5 203 238 l238 238 3 -72 3 -72 -113 -113z m865 65 l-47 -48 -75
0 -76 0 120 120 120 120 3 -71 3 -72 -48 -49z m-796 -196 l-44 -44 -44 22
c-24 12 -46 24 -48 27 -3 2 35 44 85 94 l89 90 3 -73 3 -72 -44 -44z m421 55
c15 -17 9 -25 -101 -135 l-117 -117 0 75 0 75 87 87 86 87 14 -27 c8 -15 22
-35 31 -45z"/>
<path d="M4885 230 c-191 -191 -226 -230 -205 -230 37 0 443 407 438 439 -2
18 -44 -19 -233 -209z"/>
</g>
</svg>
