<svg width="6" height="8" viewBox="0 0 6 8" fill="none" xmlns="http://www.w3.org/2000/svg">
<path d="M2.99992 7.75002C2.47364 7.30112 1.98583 6.80899 1.54159 6.27877C0.874919 5.48252 0.0832523 4.29669 0.0832523 3.16669C0.0826614 1.9865 0.793355 0.922267 1.8837 0.470603C2.97404 0.0189394 4.22911 0.268871 5.06325 1.10377C5.61178 1.64986 5.91905 2.39268 5.9166 3.16669C5.9166 4.29669 5.12492 5.48252 4.45825 6.27877C4.01401 6.80899 3.5262 7.30112 2.99992 7.75002ZM2.99992 1.91669C2.55334 1.91669 2.14068 2.15494 1.91739 2.54169C1.6941 2.92844 1.6941 3.40494 1.91739 3.79169C2.14068 4.17844 2.55334 4.41669 2.99992 4.41669C3.69028 4.41669 4.24992 3.85704 4.24992 3.16669C4.24992 2.47633 3.69028 1.91669 2.99992 1.91669Z" fill="#D9DFE8"/>
</svg>
