<svg version="1.1" id="Layer_1" xmlns="http://www.w3.org/2000/svg" xmlns:xlink="http://www.w3.org/1999/xlink" x="0px" y="0px"
	 width="100%" viewBox="0 0 196 196" enable-background="new 0 0 196 196" xml:space="preserve">
<path fill="#4859FF" opacity="1.000000" stroke="none" 
	d="
M197.000000,79.000000 
	C197.000000,92.354225 197.000000,105.708458 196.713623,119.189926 
	C195.637817,120.876335 194.510605,122.353584 194.109634,124.006958 
	C188.066040,148.926987 173.960648,168.286697 152.524765,181.849258 
	C144.158813,187.142426 134.266190,190.009705 125.118820,194.093719 
	C123.613426,194.765823 122.366417,196.016632 121.000000,197.000000 
	C106.979103,197.000000 92.958214,197.000000 78.808929,196.700806 
	C74.883072,195.160721 71.017250,194.095505 67.299835,192.648911 
	C50.171043,185.983398 35.062366,176.597122 23.296928,161.982498 
	C13.821760,150.212753 7.198529,137.339539 3.902872,122.637352 
	C3.526649,120.959000 1.995587,119.539513 0.999999,118.000000 
	C1.000000,105.645775 1.000000,93.291542 1.291491,80.810051 
	C2.369435,79.116341 3.565094,77.627594 3.879562,75.971527 
	C7.338100,57.757965 16.351965,42.539883 29.116337,29.452209 
	C42.042770,16.198372 57.762077,7.665956 75.624123,2.953473 
	C76.525162,2.715757 77.212929,1.669690 78.000000,1.000000 
	C92.020897,1.000000 106.041786,1.000000 120.190155,1.285143 
	C122.036026,2.374477 123.678596,3.478356 125.484840,3.935322 
	C139.597290,7.505661 152.176392,14.120439 163.051056,23.652918 
	C179.408371,37.991379 190.477676,55.656776 195.070618,77.138832 
	C195.225586,77.863602 196.335312,78.384224 197.000000,79.000000 
M70.897827,53.671394 
	C70.094994,60.310040 69.292168,66.948692 68.495293,73.538071 
	C54.654995,67.392540 44.744469,69.445320 37.149498,80.135040 
	C28.854332,91.810272 28.540434,112.342903 36.475754,124.205986 
	C43.601192,134.858322 56.952614,137.503082 67.583794,130.366714 
	C68.883568,129.494217 70.178001,128.613770 71.674995,127.601746 
	C72.400124,129.636993 72.946777,131.171310 73.506683,132.742828 
	C79.117828,132.742828 84.558029,132.742828 90.310738,132.742828 
	C90.310738,104.119934 90.310738,75.731651 90.310738,46.925720 
	C83.103134,47.007439 76.366310,47.249859 70.897827,53.671394 
M128.178055,124.486694 
	C128.178055,106.767357 128.178055,89.048019 128.178055,71.398605 
	C120.953934,71.398605 114.360321,71.398605 107.182755,71.398605 
	C107.182755,73.465965 107.187134,75.256165 107.182068,77.046333 
	C107.135445,93.525284 106.879913,110.007141 107.110092,126.482208 
	C107.271667,138.046066 105.704506,148.510178 93.471214,154.335831 
	C110.921295,160.206604 124.309624,153.388321 127.450455,137.404526 
	C128.211487,133.531677 127.960724,129.459991 128.178055,124.486694 
M130.081284,51.347092 
	C131.671570,45.762775 130.104691,41.118237 125.546181,37.683475 
	C121.482574,34.621609 116.959663,34.288685 112.452858,36.776615 
	C107.987976,39.241390 105.812523,43.137909 105.978310,48.248550 
	C106.154686,53.685440 110.099739,58.478287 115.357368,59.764801 
	C121.253548,61.207565 126.376526,58.500244 130.081284,51.347092 
M148.023209,131.831238 
	C153.077423,134.030212 157.794281,133.518738 161.884094,129.753647 
	C165.307999,126.601608 166.626221,122.587799 165.600372,117.998596 
	C164.389297,112.580650 159.803635,108.673073 154.357071,108.221664 
	C149.103958,107.786285 143.850586,111.237762 141.926758,116.388382 
	C139.821030,122.025993 141.626572,127.042496 148.023209,131.831238 
z"/>
<path fill="#000000" opacity="1.000000" stroke="none" 
	d="
M77.531342,1.000000 
	C77.212929,1.669690 76.525162,2.715757 75.624123,2.953473 
	C57.762077,7.665956 42.042770,16.198372 29.116337,29.452209 
	C16.351965,42.539883 7.338100,57.757965 3.879562,75.971527 
	C3.565094,77.627594 2.369435,79.116341 1.291491,80.341393 
	C1.000000,53.740719 1.000000,27.481440 1.000000,1.000000 
	C26.353796,1.000000 51.708241,1.000000 77.531342,1.000000 
z"/>
<path fill="#000000" opacity="1.000000" stroke="none" 
	d="
M0.999999,118.468658 
	C1.995587,119.539513 3.526649,120.959000 3.902872,122.637352 
	C7.198529,137.339539 13.821760,150.212753 23.296928,161.982498 
	C35.062366,176.597122 50.171043,185.983398 67.299835,192.648911 
	C71.017250,194.095505 74.883072,195.160721 78.340271,196.700806 
	C52.405510,197.000000 26.811024,197.000000 1.000000,197.000000 
	C1.000000,170.979507 1.000000,144.958405 0.999999,118.468658 
z"/>
<path fill="#000000" opacity="1.000000" stroke="none" 
	d="
M197.000000,78.531342 
	C196.335312,78.384224 195.225586,77.863602 195.070618,77.138832 
	C190.477676,55.656776 179.408371,37.991379 163.051056,23.652918 
	C152.176392,14.120439 139.597290,7.505661 125.484840,3.935322 
	C123.678596,3.478356 122.036026,2.374477 120.658813,1.285143 
	C146.261169,1.000000 171.522324,1.000000 197.000000,1.000000 
	C197.000000,26.687155 197.000000,52.374920 197.000000,78.531342 
z"/>
<path fill="#000000" opacity="1.000000" stroke="none" 
	d="
M121.468658,197.000000 
	C122.366417,196.016632 123.613426,194.765823 125.118820,194.093719 
	C134.266190,190.009705 144.158813,187.142426 152.524765,181.849258 
	C173.960648,168.286697 188.066040,148.926987 194.109634,124.006958 
	C194.510605,122.353584 195.637817,120.876335 196.713623,119.658585 
	C197.000000,145.593063 197.000000,171.186142 197.000000,197.000000 
	C171.979538,197.000000 146.958435,197.000000 121.468658,197.000000 
z"/>
<path fill="#FBFBFF" opacity="1.000000" stroke="none" 
	d="
M71.103287,53.347206 
	C76.366310,47.249859 83.103134,47.007439 90.310738,46.925720 
	C90.310738,75.731651 90.310738,104.119934 90.310738,132.742828 
	C84.558029,132.742828 79.117828,132.742828 73.506683,132.742828 
	C72.946777,131.171310 72.400124,129.636993 71.674995,127.601746 
	C70.178001,128.613770 68.883568,129.494217 67.583794,130.366714 
	C56.952614,137.503082 43.601192,134.858322 36.475754,124.205986 
	C28.540434,112.342903 28.854332,91.810272 37.149498,80.135040 
	C44.744469,69.445320 54.654995,67.392540 68.495293,73.538071 
	C69.292168,66.948692 70.094994,60.310040 71.103287,53.347206 
M58.475403,87.534340 
	C51.713390,92.344925 49.730824,108.745506 55.808868,114.383614 
	C57.791069,116.222336 61.839195,116.707695 64.789795,116.390755 
	C67.939911,116.052376 69.514687,113.256401 69.355904,109.712448 
	C69.155579,105.241295 69.305244,100.754471 69.303505,96.274406 
	C69.300346,88.126343 67.768776,86.755241 58.475403,87.534340 
z"/>
<path fill="#FCFCFF" opacity="1.000000" stroke="none" 
	d="
M128.176636,124.983215 
	C127.960724,129.459991 128.211487,133.531677 127.450455,137.404526 
	C124.309624,153.388321 110.921295,160.206604 93.471214,154.335831 
	C105.704506,148.510178 107.271667,138.046066 107.110092,126.482208 
	C106.879913,110.007141 107.135445,93.525284 107.182068,77.046333 
	C107.187134,75.256165 107.182755,73.465965 107.182755,71.398605 
	C114.360321,71.398605 120.953934,71.398605 128.178055,71.398605 
	C128.178055,89.048019 128.178055,106.767357 128.176636,124.983215 
z"/>
<path fill="#FBFBFF" opacity="1.000000" stroke="none" 
	d="
M129.980026,51.718910 
	C126.376526,58.500244 121.253548,61.207565 115.357368,59.764801 
	C110.099739,58.478287 106.154686,53.685440 105.978310,48.248550 
	C105.812523,43.137909 107.987976,39.241390 112.452858,36.776615 
	C116.959663,34.288685 121.482574,34.621609 125.546181,37.683475 
	C130.104691,41.118237 131.671570,45.762775 129.980026,51.718910 
z"/>
<path fill="#FAFBFF" opacity="1.000000" stroke="none" 
	d="
M147.685394,131.640350 
	C141.626572,127.042496 139.821030,122.025993 141.926758,116.388382 
	C143.850586,111.237762 149.103958,107.786285 154.357071,108.221664 
	C159.803635,108.673073 164.389297,112.580650 165.600372,117.998596 
	C166.626221,122.587799 165.307999,126.601608 161.884094,129.753647 
	C157.794281,133.518738 153.077423,134.030212 147.685394,131.640350 
z"/>
<path fill="#4B5CFF" opacity="1.000000" stroke="none" 
	d="
M58.847176,87.390030 
	C67.768776,86.755241 69.300346,88.126343 69.303505,96.274406 
	C69.305244,100.754471 69.155579,105.241295 69.355904,109.712448 
	C69.514687,113.256401 67.939911,116.052376 64.789795,116.390755 
	C61.839195,116.707695 57.791069,116.222336 55.808868,114.383614 
	C49.730824,108.745506 51.713390,92.344925 58.847176,87.390030 
z"/>
</svg>