<?xml version="1.0" standalone="no"?>
<!DOCTYPE svg PUBLIC "-//W3C//DTD SVG 20010904//EN"
 "http://www.w3.org/TR/2001/REC-SVG-20010904/DTD/svg10.dtd">
<svg version="1.0" xmlns="http://www.w3.org/2000/svg"
 width="512.000000pt" height="512.000000pt" viewBox="0 0 512.000000 512.000000"
 preserveAspectRatio="xMidYMid meet">
<metadata>
Created by potrace 1.16, written by Peter Selinger 2001-2019
</metadata>
<g transform="translate(0.000000,512.000000) scale(0.100000,-0.100000)"
fill="#c497f7" stroke="none">
<path d="M2426 5109 c-126 -30 -271 -145 -334 -265 -81 -156 -81 -342 0 -498
43 -82 146 -183 228 -223 84 -41 136 -52 240 -53 153 0 265 46 370 150 136
134 188 315 145 499 -44 185 -206 349 -385 390 -54 13 -210 12 -264 0z m302
-189 c75 -39 135 -103 170 -180 35 -75 37 -199 4 -280 -30 -75 -97 -149 -174
-191 -60 -33 -67 -34 -168 -34 -101 0 -108 1 -168 34 -75 41 -135 105 -170
181 -22 46 -26 69 -26 145 0 104 24 168 89 243 75 86 165 123 290 119 80 -3
97 -7 153 -37z"/>
<path d="M3578 4822 c-180 -119 -327 -221 -327 -227 0 -5 147 -108 327 -227
l327 -218 3 110 3 110 229 0 230 0 0 -415 c0 -453 -1 -444 59 -508 43 -47 95
-68 166 -68 93 0 164 42 206 123 18 35 19 66 19 595 0 522 -2 561 -19 598 -10
22 -31 52 -47 67 -61 57 -70 58 -473 58 l-370 0 -3 110 -3 110 -327 -218z
m182 -117 l0 -34 430 -3 429 -3 23 -23 23 -23 0 -519 c0 -518 0 -519 -22 -541
-27 -27 -69 -27 -96 0 -22 21 -22 26 -25 491 l-3 470 -379 0 -380 0 0 -36 c0
-20 -4 -34 -9 -32 -4 2 -56 34 -114 73 l-105 70 107 72 c58 39 109 72 114 72
4 1 7 -15 7 -34z"/>
<path d="M430 4804 c-45 -20 -87 -59 -111 -106 -18 -34 -19 -62 -19 -368 l0
-330 -110 0 c-60 0 -110 -2 -110 -5 0 -8 440 -665 445 -665 5 0 445 657 445
665 0 3 -49 5 -110 5 l-110 0 0 185 0 184 499 3 499 3 43 30 c129 91 129 289
0 380 l-43 30 -349 3 -349 3 0 -76 0 -75 300 0 c239 0 308 -3 335 -14 37 -16
52 -48 40 -86 -15 -48 -37 -50 -600 -50 l-525 0 0 -339 0 -340 35 -3 35 -3
-69 -103 c-38 -57 -72 -104 -76 -104 -4 0 -38 47 -76 104 l-69 103 35 3 34 3
3 389 3 389 23 23 c22 22 30 23 222 26 l200 4 0 74 0 74 -217 0 c-172 -1 -225
-4 -253 -16z"/>
<path d="M2421 3784 c-189 -51 -346 -220 -380 -408 -14 -78 -14 -370 0 -438
20 -97 75 -195 150 -269 65 -64 69 -71 69 -112 l0 -44 -160 -41 c-88 -22 -189
-55 -225 -73 -78 -38 -154 -110 -186 -176 -24 -48 -24 -49 -27 -475 l-3 -428
901 0 901 0 -3 428 c-3 426 -3 427 -27 475 -32 66 -108 138 -186 176 -36 18
-137 51 -225 73 l-160 41 0 44 c0 41 4 48 69 112 75 74 130 172 150 269 14 68
14 360 0 438 -34 191 -193 359 -384 409 -73 19 -202 18 -274 -1z m246 -159
c110 -33 208 -129 242 -240 10 -33 18 -61 17 -62 -1 -1 -20 4 -41 12 -31 11
-105 14 -325 14 -220 0 -294 -3 -325 -14 -21 -8 -40 -13 -41 -12 -9 10 44 132
73 171 94 123 253 175 400 131z m194 -458 c69 -45 84 -117 49 -228 -49 -155
-190 -259 -350 -259 -160 0 -301 104 -350 259 -35 111 -20 183 49 228 33 22
40 23 301 23 261 0 268 -1 301 -23z m-301 -647 c41 0 92 4 113 9 36 9 37 8 37
-18 0 -20 -19 -45 -75 -101 l-75 -74 -75 74 c-56 56 -75 81 -75 101 0 26 1 27
38 18 20 -5 71 -9 112 -9z m128 -288 l127 126 160 -42 c173 -45 212 -61 263
-110 67 -63 67 -58 70 -408 l3 -318 -751 0 -751 0 3 318 c3 350 3 345 70 408
51 49 90 65 263 110 l160 42 128 -126 127 -127 128 127z"/>
<path d="M2330 1850 l0 -80 80 0 80 0 0 80 0 80 -80 0 -80 0 0 -80z"/>
<path d="M2630 1850 l0 -80 80 0 80 0 0 80 0 80 -80 0 -80 0 0 -80z"/>
<path d="M260 3021 l-255 -148 0 -313 0 -313 255 -148 c140 -81 260 -148 265
-148 6 0 125 66 265 148 l255 147 0 314 0 314 -255 147 c-140 82 -259 148
-265 148 -5 0 -125 -67 -265 -148z m635 -461 l0 -212 -185 -107 -185 -107
-188 109 -187 109 0 208 0 208 187 109 188 109 185 -107 185 -107 0 -212z"/>
<path d="M4330 3021 l-255 -148 0 -313 0 -313 255 -148 c140 -81 260 -148 265
-148 6 0 125 66 265 148 l255 147 0 314 0 314 -255 147 c-140 82 -259 148
-265 148 -5 0 -125 -67 -265 -148z m635 -461 l0 -212 -185 -107 -185 -107
-188 109 -187 109 0 208 0 208 187 109 188 109 185 -107 185 -107 0 -212z"/>
<path d="M4370 1460 c-121 -181 -220 -332 -220 -335 0 -3 50 -5 110 -5 l110 0
0 -185 0 -184 -499 -3 -499 -3 -43 -30 c-129 -91 -129 -289 0 -380 l43 -30
349 -3 349 -3 0 76 0 75 -300 0 c-239 0 -308 3 -335 14 -37 16 -52 48 -40 86
15 48 37 50 600 50 l525 0 0 339 0 340 -35 3 -35 3 69 103 c38 57 72 104 76
104 4 0 38 -47 76 -104 l69 -103 -35 -3 -34 -3 -3 -389 -3 -389 -23 -23 c-22
-22 -30 -23 -222 -26 l-200 -4 0 -74 0 -74 215 0 c235 0 262 5 319 58 64 60
66 73 66 435 l0 327 110 0 c61 0 110 2 110 5 0 8 -440 665 -445 665 -3 0 -104
-148 -225 -330z"/>
<path d="M485 1740 c-50 -8 -92 -30 -126 -67 -61 -65 -59 -40 -59 -653 0 -532
1 -563 19 -598 25 -48 66 -87 113 -106 32 -14 95 -16 407 -16 l370 0 3 -110 3
-110 327 218 c180 119 327 222 327 227 0 6 -147 108 -327 227 l-327 218 -3
-110 -3 -110 -229 0 -230 0 0 415 c0 453 1 444 -59 508 -50 55 -125 79 -206
67z m92 -182 c17 -19 18 -52 21 -489 l3 -469 379 0 380 0 0 35 c0 19 2 35 5
35 3 0 54 -33 114 -73 l109 -72 -105 -70 c-58 -39 -110 -72 -114 -73 -5 -2 -9
12 -9 32 l0 35 -430 3 -429 3 -23 23 -23 23 0 518 c0 555 -1 542 49 561 27 9
51 2 73 -22z"/>
<path d="M2426 1039 c-126 -30 -271 -145 -334 -265 -81 -156 -81 -342 0 -498
43 -82 146 -183 228 -223 84 -41 136 -52 240 -53 153 0 265 46 370 150 136
134 188 315 145 499 -44 185 -206 349 -385 390 -54 13 -210 12 -264 0z m302
-189 c75 -39 135 -103 170 -180 35 -75 37 -199 4 -280 -30 -75 -97 -149 -174
-191 -60 -33 -67 -34 -168 -34 -101 0 -108 1 -168 34 -75 41 -135 105 -170
181 -22 46 -26 69 -26 145 0 104 24 168 89 243 75 86 165 123 290 119 80 -3
97 -7 153 -37z"/>
</g>
</svg>
