<?xml version="1.0" standalone="no"?>
<!DOCTYPE svg PUBLIC "-//W3C//DTD SVG 20010904//EN"
 "http://www.w3.org/TR/2001/REC-SVG-20010904/DTD/svg10.dtd">
<svg version="1.0" xmlns="http://www.w3.org/2000/svg"
 width="512.000000pt" height="512.000000pt" viewBox="0 0 512.000000 512.000000"
 preserveAspectRatio="xMidYMid meet">
<metadata>
Created by potrace 1.16, written by Peter Selinger 2001-2019
</metadata>
<g transform="translate(0.000000,512.000000) scale(0.100000,-0.100000)"
fill="#c497f7" stroke="none">
<path d="M2805 5105 c-277 -61 -504 -241 -623 -493 l-28 -59 -67 34 c-82 41
-214 85 -322 109 -123 26 -360 24 -495 -5 -240 -51 -431 -154 -612 -329 -178
-172 -288 -366 -349 -612 -20 -81 -23 -121 -24 -270 0 -190 10 -259 56 -401
86 -265 261 -495 500 -654 l66 -44 55 -153 c31 -84 59 -161 63 -170 5 -12 3
-18 -5 -18 -22 0 -79 -49 -97 -83 -13 -25 -18 -67 -21 -193 -6 -238 12 -300
103 -344 l45 -22 0 -86 c0 -137 25 -192 96 -211 28 -7 29 -11 35 -77 8 -80 23
-115 71 -161 58 -56 89 -63 276 -63 164 0 170 1 223 28 80 40 113 92 117 188
3 59 8 77 21 80 93 29 111 62 111 203 l0 101 37 15 c98 41 113 81 113 313 0
131 -4 192 -14 215 -13 32 -78 97 -96 97 -16 0 -13 11 51 182 l60 163 71 45
c78 50 226 184 270 244 51 70 26 141 -49 141 -36 0 -46 -8 -138 -101 -104
-105 -175 -159 -285 -214 -67 -34 -165 -72 -212 -84 l-28 -6 0 304 0 304 118
4 c128 4 166 17 236 79 91 80 119 236 63 351 -35 70 -102 131 -169 154 -75 25
-179 16 -247 -21 -105 -57 -149 -141 -158 -300 l-6 -105 -92 0 -92 0 -5 113
c-5 133 -28 189 -103 255 -63 55 -128 76 -219 70 -117 -8 -195 -59 -245 -160
-41 -81 -44 -185 -7 -265 56 -120 153 -173 316 -173 l100 0 0 -306 0 -305 -22
7 c-283 87 -485 236 -636 467 -105 163 -160 334 -169 533 -15 323 98 607 334
835 336 325 826 398 1242 187 l85 -43 -3 -145 c-2 -126 1 -157 22 -241 43
-166 129 -312 254 -429 67 -64 154 -127 206 -151 24 -11 27 -18 27 -58 0 -51
-30 -192 -54 -260 -24 -66 -21 -106 10 -130 57 -45 112 -14 143 82 28 88 48
173 57 240 5 42 10 57 20 53 7 -3 50 -10 96 -16 90 -13 209 -7 301 14 l57 13
0 -226 c0 -208 2 -229 20 -259 11 -18 34 -41 52 -52 32 -19 52 -20 463 -20
411 0 431 1 463 20 63 39 72 67 72 238 0 149 -1 154 -25 177 -32 33 -78 33
-110 0 -24 -23 -25 -30 -25 -150 l0 -125 -375 0 -375 0 0 229 0 228 59 37 c86
53 169 124 225 195 l49 61 209 0 208 0 0 -105 c0 -99 2 -107 25 -130 15 -16
36 -25 55 -25 19 0 40 9 55 25 24 23 25 29 25 157 0 149 -10 180 -72 218 -30
18 -51 20 -227 20 -180 0 -193 1 -186 18 45 108 70 268 61 388 -19 229 -98
406 -255 567 -122 126 -263 206 -434 247 -97 24 -297 26 -392 5z m353 -161
c110 -23 236 -91 326 -175 133 -125 211 -271 236 -448 45 -304 -128 -619 -415
-756 -106 -51 -184 -68 -310 -69 -134 0 -205 17 -335 81 -80 39 -109 60 -186
137 -76 77 -97 106 -136 186 -65 134 -82 211 -76 357 9 204 70 346 213 488 92
91 162 136 278 177 129 46 257 53 405 22z m-1957 -1507 c52 -34 69 -78 69
-174 l0 -83 -85 0 c-96 0 -128 11 -169 60 -51 61 -26 168 47 204 46 22 98 20
138 -7z m800 0 c70 -46 86 -131 39 -198 -32 -45 -75 -59 -176 -59 l-87 0 5 89
c4 68 11 98 27 124 40 66 129 86 192 44z m-381 -737 l0 -320 -95 0 -95 0 0
320 0 320 95 0 95 0 0 -320z m-350 -553 l0 -98 -37 3 c-34 3 -37 6 -53 53 -10
28 -29 80 -43 116 l-25 66 79 -21 79 -21 0 -98z m627 20 l-42 -117 -37 0 -38
0 0 100 c0 97 1 100 23 101 12 0 47 8 77 18 30 10 56 17 57 16 2 -1 -16 -54
-40 -118z m-277 -32 l0 -85 -95 0 -95 0 0 85 0 85 95 0 95 0 0 -85z m365 -410
l0 -160 -143 -5 c-136 -5 -145 -6 -163 -29 -26 -32 -24 -77 6 -106 21 -22 33
-25 90 -25 l65 0 0 -75 0 -75 -315 0 -315 0 0 75 0 75 105 0 c99 0 107 2 130
25 16 15 25 36 25 55 0 19 -9 40 -25 55 -24 25 -27 25 -198 25 -150 0 -176 2
-181 16 -8 20 -8 278 0 298 6 15 53 16 463 14 l456 -3 0 -160z m-275 -680 c0
-32 -6 -51 -20 -65 -18 -18 -33 -20 -164 -20 -144 0 -145 0 -165 26 -13 17
-21 41 -21 65 l0 39 185 0 185 0 0 -45z"/>
<path d="M3378 4533 c-9 -2 -117 -116 -239 -254 -121 -137 -222 -249 -224
-249 -1 0 -58 66 -126 148 -164 195 -171 202 -209 202 -41 0 -80 -39 -80 -79
0 -32 26 -68 237 -316 127 -150 154 -172 196 -161 18 4 107 97 284 297 242
273 258 293 261 333 2 31 -2 46 -15 58 -20 19 -60 28 -85 21z"/>
<path d="M2485 2439 c-37 -10 -73 -42 -86 -76 -5 -13 -9 -128 -9 -255 0 -194
3 -235 17 -265 22 -47 78 -72 159 -73 239 -1 352 -295 177 -461 -57 -55 -96
-70 -195 -79 -72 -6 -93 -11 -112 -29 -44 -41 -47 -64 -44 -304 l3 -226 29
-30 c17 -17 46 -36 65 -41 20 -5 123 -10 230 -10 l193 0 -7 -27 c-30 -117 -21
-234 26 -328 39 -79 127 -166 206 -203 53 -24 69 -27 178 -27 117 0 122 1 190
34 198 98 289 315 221 528 l-7 21 218 4 c237 3 250 6 283 61 18 29 20 52 20
250 0 119 1 217 3 217 1 0 24 -7 51 -15 115 -35 266 -8 369 65 273 195 219
631 -93 751 -90 35 -227 37 -314 3 -14 -6 -16 15 -16 213 0 213 -1 221 -23
254 -37 55 -71 61 -322 57 -196 -3 -223 -5 -248 -22 -37 -25 -57 -66 -57 -114
0 -179 -179 -319 -343 -268 -118 36 -181 115 -201 251 -14 97 -35 128 -95 145
-44 12 -424 12 -466 -1z m408 -206 c18 -175 178 -328 370 -356 225 -32 437
123 479 351 l12 62 162 0 163 0 3 -251 3 -251 33 -29 c42 -38 92 -39 162 -2
139 72 306 17 375 -122 28 -55 28 -174 0 -230 -25 -50 -80 -105 -130 -130 -63
-31 -175 -28 -242 8 -74 38 -130 37 -169 -4 l-29 -30 -3 -250 -3 -249 -244 0
-243 0 -31 -26 c-47 -39 -50 -80 -10 -161 29 -58 34 -79 34 -138 0 -59 -5 -79
-30 -123 -51 -94 -132 -142 -237 -142 -204 0 -333 211 -239 393 41 79 41 128
2 168 l-29 29 -251 0 -251 0 0 158 0 157 76 13 c300 47 456 371 308 642 -59
108 -196 198 -320 208 l-64 5 0 178 0 179 169 0 168 0 6 -57z"/>
</g>
</svg>
