<?xml version="1.0" standalone="no"?>
<!DOCTYPE svg PUBLIC "-//W3C//DTD SVG 20010904//EN"
 "http://www.w3.org/TR/2001/REC-SVG-20010904/DTD/svg10.dtd">
<svg version="1.0" xmlns="http://www.w3.org/2000/svg"
 width="200.000000pt" height="200.000000pt" viewBox="0 0 200.000000 200.000000"
 preserveAspectRatio="xMidYMid meet">
<metadata>
Created by potrace 1.16, written by Peter Selinger 2001-2019
</metadata>
<g transform="translate(0.000000,200.000000) scale(0.100000,-0.100000)"
fill="#c497f7" stroke="none">
<path d="M207 1723 c-4 -3 -7 -330 -7 -725 l0 -718 525 0 525 0 0 204 c0 255
3 260 85 136 133 -203 282 -340 369 -340 46 0 77 24 91 68 10 35 -37 125 -102
193 -60 63 -219 189 -289 228 l-40 23 24 48 c67 135 18 325 -103 400 l-35 22
0 234 0 234 -518 0 c-285 0 -522 -3 -525 -7z m993 -242 l0 -198 -27 5 c-16 2
-33 11 -39 18 -16 20 -805 16 -812 -3 -3 -10 71 -13 345 -14 309 0 344 -2 310
-14 -21 -8 -51 -23 -66 -34 -27 -19 -46 -21 -306 -23 -212 -2 -279 -6 -283
-15 -3 -10 54 -13 263 -13 l267 0 -21 -32 -20 -33 -242 -5 c-181 -4 -243 -8
-247 -17 -3 -10 48 -13 233 -13 l237 0 -6 -22 c-3 -13 -6 -29 -6 -35 0 -10
-55 -13 -227 -15 -170 -2 -227 -6 -231 -15 -3 -10 46 -13 222 -13 216 0 226
-1 226 -19 0 -11 3 -26 6 -35 5 -14 -20 -16 -222 -18 -171 -2 -228 -6 -232
-15 -3 -10 47 -13 230 -13 l233 0 11 -35 11 -35 -243 0 c-210 0 -244 -2 -244
-15 0 -13 35 -15 253 -15 l253 0 31 -35 31 -35 -281 -2 c-210 -2 -281 -6 -284
-15 -4 -10 69 -13 314 -16 277 -3 326 -6 380 -22 51 -16 71 -17 122 -9 l61 10
0 -173 0 -173 -475 0 -475 0 0 680 0 680 475 0 475 0 0 -199z m8 -258 l37 -18
3 -231 2 -231 -49 -22 c-51 -22 -161 -30 -161 -12 0 6 22 22 50 38 51 29 57
37 40 63 -8 13 -18 10 -67 -15 -63 -33 -75 -44 -68 -62 5 -15 3 -15 -19 -7
-11 4 -13 14 -10 34 6 26 3 29 -45 45 -28 9 -56 25 -62 36 -9 18 -7 19 31 13
38 -6 40 -5 40 19 0 21 -6 26 -38 32 -47 8 -58 14 -67 44 -6 20 -4 23 10 17 9
-3 34 -9 56 -12 36 -6 39 -5 39 18 0 21 -7 26 -50 37 -49 13 -58 23 -42 49 7
10 17 9 52 -3 46 -16 64 -10 58 21 -2 12 -17 22 -41 27 -42 10 -43 13 -18 46
l18 24 51 -17 c55 -19 72 -15 72 14 0 11 -11 22 -30 29 -16 5 -30 12 -30 15 0
3 21 12 48 21 57 18 139 13 190 -12z"/>
<path d="M327 1613 c-4 -3 -7 -10 -7 -15 0 -4 182 -8 405 -8 353 0 405 2 405
15 0 13 -51 15 -398 15 -219 0 -402 -3 -405 -7z"/>
<path d="M327 1513 c-4 -3 -7 -10 -7 -15 0 -4 182 -8 405 -8 353 0 405 2 405
15 0 13 -51 15 -398 15 -219 0 -402 -3 -405 -7z"/>
<path d="M327 1413 c-4 -3 -7 -10 -7 -15 0 -4 182 -8 405 -8 353 0 405 2 405
15 0 13 -51 15 -398 15 -219 0 -402 -3 -405 -7z"/>
<path d="M327 613 c-4 -3 -7 -10 -7 -15 0 -4 182 -8 405 -8 353 0 405 2 405
15 0 13 -51 15 -398 15 -219 0 -402 -3 -405 -7z"/>
<path d="M327 513 c-4 -3 -7 -10 -7 -15 0 -4 182 -8 405 -8 353 0 405 2 405
15 0 13 -51 15 -398 15 -219 0 -402 -3 -405 -7z"/>
<path d="M327 413 c-4 -3 -7 -10 -7 -15 0 -4 182 -8 405 -8 353 0 405 2 405
15 0 13 -51 15 -398 15 -219 0 -402 -3 -405 -7z"/>
</g>
</svg>
