<?xml version="1.0" standalone="no"?>
<!DOCTYPE svg PUBLIC "-//W3C//DTD SVG 20010904//EN"
 "http://www.w3.org/TR/2001/REC-SVG-20010904/DTD/svg10.dtd">
<svg version="1.0" xmlns="http://www.w3.org/2000/svg"
 width="840.000000pt" height="849.000000pt" viewBox="0 0 840.000000 849.000000"
 preserveAspectRatio="xMidYMid meet">
<metadata>
Created by potrace 1.16, written by Peter Selinger 2001-2019
</metadata>
<g transform="translate(0.000000,849.000000) scale(0.100000,-0.100000)"
fill="#c497f7" stroke="none">
<path d="M4087 8079 c-130 -31 -332 -198 -393 -326 -39 -84 -57 -183 -50 -285
5 -83 4 -90 -20 -125 -24 -35 -26 -44 -21 -113 6 -86 30 -156 76 -224 18 -26
46 -88 62 -137 80 -246 257 -372 500 -356 182 12 330 141 390 339 17 55 31 79
69 116 38 37 52 61 70 117 31 98 36 174 17 223 -13 33 -14 52 -5 113 11 81 5
263 -12 319 -5 20 -20 50 -32 66 -33 45 -224 201 -282 231 -91 46 -266 66
-369 42z"/>
<path d="M3625 6429 c-340 -160 -374 -178 -419 -219 -97 -89 -124 -195 -133
-517 l-6 -223 1137 0 1136 0 -5 113 c-13 281 -17 324 -30 394 -8 41 -26 100
-40 131 -47 102 -109 150 -295 230 -63 27 -166 75 -227 106 -62 31 -122 56
-132 56 -21 0 -11 28 -196 -553 -31 -97 -60 -175 -65 -172 -4 3 -27 57 -50
121 l-43 115 42 87 c60 128 56 198 -14 228 -44 18 -138 18 -174 -1 -63 -32
-66 -124 -7 -237 l36 -68 -34 -98 c-44 -127 -47 -132 -57 -132 -13 0 -25 34
-139 388 -78 242 -108 322 -119 322 -9 0 -83 -32 -166 -71z"/>
<path d="M2746 5841 c-86 -57 -67 -165 30 -178 79 -10 134 46 120 121 -13 68
-89 97 -150 57z"/>
<path d="M5546 5820 c-55 -62 -47 -114 24 -150 52 -27 82 -25 118 5 57 48 50
117 -17 162 -51 34 -82 30 -125 -17z"/>
<path d="M2339 5566 c-54 -31 -63 -120 -16 -164 52 -49 127 -30 160 41 23 48
21 62 -10 97 -33 37 -93 49 -134 26z"/>
<path d="M5950 5542 c-53 -52 -53 -82 -1 -133 29 -29 47 -39 70 -39 68 0 120
55 106 112 -9 36 -64 86 -103 94 -28 6 -37 2 -72 -34z"/>
<path d="M1998 5222 c-32 -19 -58 -68 -58 -107 0 -35 59 -95 93 -95 40 0 91
41 105 86 16 52 4 87 -40 114 -40 24 -64 25 -100 2z"/>
<path d="M6324 5220 c-29 -11 -64 -58 -64 -84 0 -56 82 -132 130 -121 35 9 78
54 86 91 4 24 0 37 -21 63 -28 33 -74 61 -97 60 -7 0 -23 -4 -34 -9z"/>
<path d="M1694 4796 c-56 -56 -45 -134 23 -162 103 -43 193 88 114 167 -42 42
-92 40 -137 -5z"/>
<path d="M6602 4813 c-70 -34 -77 -105 -17 -168 65 -70 165 -24 165 76 0 23
-10 41 -39 70 -43 43 -60 46 -109 22z"/>
<path d="M3955 4663 c-172 -31 -386 -119 -536 -221 -293 -199 -481 -472 -586
-852 -15 -54 -18 -104 -18 -300 1 -223 2 -240 27 -330 62 -222 159 -409 303
-586 l25 -30 -59 -90 c-52 -80 -85 -115 -220 -235 -49 -43 -51 -63 -9 -85 26
-13 52 -16 137 -12 87 4 125 11 213 41 58 20 141 53 184 75 l77 39 121 -53
c227 -98 397 -130 641 -121 163 6 262 22 399 68 345 115 652 392 811 733 86
183 126 366 126 578 0 165 -20 294 -67 436 -69 209 -169 375 -324 535 -226
235 -474 362 -805 413 -114 17 -336 16 -440 -3z m339 -1223 c41 -25 61 -53 76
-110 16 -60 5 -104 -38 -152 -57 -64 -113 -80 -193 -58 -91 25 -144 142 -105
233 20 48 75 96 126 111 50 15 82 9 134 -24z m-617 9 c51 -25 90 -84 99 -151
16 -114 -105 -211 -223 -179 -84 23 -133 86 -133 171 0 137 133 219 257 159z
m1227 -9 c45 -27 76 -92 76 -157 0 -43 -6 -59 -32 -94 -56 -71 -116 -92 -200
-69 -153 43 -170 256 -26 329 53 27 130 23 182 -9z"/>
<path d="M1511 4381 c-124 -66 -44 -247 84 -189 49 22 69 96 41 146 -13 24
-63 62 -81 62 -5 -1 -25 -9 -44 -19z"/>
<path d="M6792 4355 c-40 -33 -48 -74 -26 -120 59 -125 233 -59 184 70 -29 77
-100 99 -158 50z"/>
<path d="M1376 3899 c-31 -24 -56 -69 -56 -99 0 -33 26 -75 55 -88 77 -35 145
16 145 108 0 81 -83 127 -144 79z"/>
<path d="M6932 3890 c-65 -40 -68 -115 -6 -169 46 -41 86 -41 125 -2 41 41 41
107 2 151 -37 40 -78 47 -121 20z"/>
<path d="M1198 3436 c-190 -78 -338 -229 -389 -398 -19 -61 -21 -87 -16 -188
5 -117 5 -118 -19 -129 -22 -10 -24 -17 -24 -77 0 -100 40 -232 87 -285 8 -9
30 -61 49 -115 54 -151 103 -222 197 -285 137 -91 306 -105 447 -37 125 60
214 173 256 325 12 46 23 63 45 76 34 19 79 108 104 202 19 74 19 92 -1 146
-13 38 -14 60 -3 166 21 214 -15 343 -113 408 -25 17 -72 55 -106 86 -33 31
-80 66 -105 78 -112 54 -311 67 -409 27z"/>
<path d="M6931 3444 c-151 -40 -325 -194 -400 -354 -23 -49 -26 -71 -31 -207
-5 -140 -7 -153 -27 -175 -29 -31 -30 -88 -3 -187 24 -86 42 -124 81 -169 16
-18 29 -43 29 -55 0 -53 74 -209 126 -267 76 -83 232 -151 350 -152 183 -1
360 136 424 327 14 42 38 84 66 117 49 57 78 126 101 236 14 70 14 74 -6 113
-19 36 -21 47 -11 97 13 70 13 243 0 300 -22 92 -48 129 -154 216 -127 105
-186 141 -261 161 -73 19 -212 18 -284 -1z"/>
<path d="M787 1809 c-76 -38 -172 -83 -215 -100 -232 -92 -301 -171 -337 -387
-11 -68 -35 -379 -35 -457 0 -13 143 -15 1143 -13 l1142 3 -3 150 c-8 346 -31
459 -112 548 -55 61 -111 93 -325 187 -77 34 -173 80 -213 102 -40 22 -77 38
-83 36 -6 -2 -57 -145 -113 -318 -122 -371 -130 -393 -142 -397 -6 -2 -28 47
-51 108 l-40 112 40 86 c48 103 58 162 31 193 -27 29 -76 48 -128 48 -57 0
-90 -13 -121 -46 -38 -41 -33 -87 18 -187 l43 -84 -18 -54 c-45 -136 -71 -200
-78 -192 -7 8 -35 91 -170 511 -40 126 -77 222 -83 221 -7 0 -74 -31 -150 -70z"/>
<path d="M6545 1835 c-44 -25 -134 -68 -200 -96 -315 -134 -375 -194 -404
-400 -5 -41 -13 -167 -17 -281 l-7 -208 1141 0 1142 0 0 63 c0 95 -29 403 -45
481 -8 37 -26 88 -40 111 -47 82 -55 86 -512 305 -84 41 -155 72 -157 69 -3
-3 -84 -255 -207 -644 -24 -75 -36 -95 -47 -78 -4 7 -26 64 -47 126 l-39 114
37 62 c49 83 61 128 45 176 -23 67 -127 97 -213 61 -77 -32 -83 -101 -22 -231
l36 -75 -20 -67 c-12 -37 -32 -92 -46 -123 -21 -48 -26 -53 -35 -37 -5 11 -55
158 -109 328 -113 351 -127 389 -143 388 -6 0 -47 -20 -91 -44z"/>
<path d="M2725 949 c-27 -24 -35 -39 -35 -66 0 -97 98 -147 169 -87 26 21 31
33 31 68 0 50 -18 78 -64 100 -47 22 -60 20 -101 -15z"/>
<path d="M5544 936 c-46 -46 -48 -104 -5 -147 33 -33 67 -37 111 -14 39 20 60
53 60 93 0 65 -34 101 -93 102 -31 0 -46 -7 -73 -34z"/>
<path d="M5123 750 c-48 -29 -68 -74 -54 -121 12 -41 52 -79 83 -79 10 0 36 9
58 20 75 38 77 135 5 180 -40 25 -52 25 -92 0z"/>
<path d="M3156 735 c-40 -37 -37 -96 7 -140 46 -46 78 -53 117 -25 34 24 60
68 60 100 0 78 -123 122 -184 65z"/>
<path d="M3665 626 c-79 -34 -88 -133 -15 -171 49 -25 107 -20 141 14 48 49
32 123 -35 155 -41 19 -51 19 -91 2z"/>
<path d="M4622 605 c-39 -33 -48 -74 -27 -119 53 -112 242 -29 194 86 -24 59
-115 77 -167 33z"/>
<path d="M4162 588 c-38 -10 -72 -58 -72 -100 0 -16 12 -41 29 -60 26 -29 35
-33 80 -33 61 0 98 30 107 87 5 31 2 40 -29 70 -39 40 -67 48 -115 36z"/>
</g>
</svg>
