<?xml version="1.0" standalone="no"?>
<!DOCTYPE svg PUBLIC "-//W3C//DTD SVG 20010904//EN"
 "http://www.w3.org/TR/2001/REC-SVG-20010904/DTD/svg10.dtd">
<svg version="1.0" xmlns="http://www.w3.org/2000/svg"
 width="200.000000pt" height="200.000000pt" viewBox="0 0 200.000000 200.000000"
 preserveAspectRatio="xMidYMid meet">
<metadata>
Created by potrace 1.16, written by Peter Selinger 2001-2019
</metadata>
<g transform="translate(0.000000,200.000000) scale(0.100000,-0.100000)"
fill="#c497f7" stroke="none">
<path d="M610 1768 c-68 -35 -103 -86 -108 -158 l-4 -60 -182 0 c-128 0 -186
-4 -194 -12 -8 -8 -12 -51 -12 -128 l0 -116 288 -79 c158 -43 292 -80 299 -82
7 -3 13 8 15 29 l3 33 90 0 90 0 3 -33 c3 -26 7 -32 20 -28 42 13 563 156 567
156 3 0 4 57 3 128 l-3 127 -187 3 -188 2 0 33 c0 84 -44 156 -115 188 -33 15
-66 19 -190 19 -137 0 -155 -2 -195 -22z m361 -117 c21 -22 29 -39 29 -65 l0
-36 -195 0 -195 0 0 36 c0 26 8 43 29 65 l29 29 137 0 137 0 29 -29z"/>
<path d="M110 941 c0 -165 3 -306 6 -315 5 -14 58 -16 494 -16 l487 0 7 -51
c13 -97 44 -159 115 -230 74 -74 142 -106 245 -116 245 -23 456 204 417 446
-30 186 -155 306 -353 336 l-38 6 0 119 c0 66 -2 120 -4 120 -4 0 -527 -144
-568 -156 -14 -4 -18 -16 -18 -54 0 -57 -5 -60 -95 -60 -90 0 -95 3 -95 61 l0
48 -42 12 c-24 6 -155 42 -293 80 -137 38 -253 69 -257 69 -4 0 -8 -135 -8
-299z m1520 -27 c140 -63 227 -220 200 -363 -21 -116 -93 -210 -198 -259 -81
-37 -193 -38 -273 0 -79 36 -133 89 -171 166 -29 59 -33 76 -33 147 1 98 31
171 97 237 103 103 246 130 378 72z"/>
<path d="M1477 914 c-4 -4 -7 -62 -7 -129 0 -149 -4 -155 -102 -155 -51 0 -67
-4 -72 -16 -10 -27 3 -34 70 -34 51 0 68 -4 84 -20 24 -24 48 -25 78 -4 26 18
30 75 7 94 -11 9 -15 42 -17 138 -3 105 -6 127 -18 130 -9 1 -19 0 -23 -4z"/>
</g>
</svg>
