<?xml version="1.0" standalone="no"?>
<!DOCTYPE svg PUBLIC "-//W3C//DTD SVG 20010904//EN"
 "http://www.w3.org/TR/2001/REC-SVG-20010904/DTD/svg10.dtd">
<svg version="1.0" xmlns="http://www.w3.org/2000/svg"
 width="3em" height="3em" viewBox="0 0 1122 1000" fill="#000"
 preserveAspectRatio="xMidYMid meet">

<g transform="translate(0.000000,1000.000000) scale(0.100000,-0.100000)"
fill="#fff" stroke="none">
<path d="M7100 9985 c-494 -82 -860 -515 -860 -1015 0 -427 270 -815 671 -961
130 -47 210 -61 354 -62 283 0 512 93 718 292 129 125 219 275 273 456 32 110
44 320 24 442 -55 346 -298 650 -622 782 -51 21 -127 46 -168 56 -102 23 -284
28 -390 10z"/>
<path d="M4670 9033 c-304 -21 -515 -57 -715 -120 -230 -74 -391 -169 -523
-307 -64 -68 -90 -106 -130 -188 -91 -185 -86 -124 -89 -970 l-4 -748 -92 77
c-306 255 -563 354 -962 370 -417 16 -815 -117 -1180 -396 -90 -68 -278 -254
-361 -357 -205 -255 -383 -601 -483 -942 -87 -295 -125 -592 -125 -982 -1
-289 9 -425 44 -663 106 -698 399 -1262 838 -1610 245 -194 502 -308 832 -369
171 -31 504 -32 643 -1 332 75 689 265 938 500 105 100 101 104 173 -174 l61
-233 713 0 712 0 0 3560 0 3560 -122 -2 c-68 -1 -143 -3 -168 -5z m-1866
-3347 c116 -30 255 -96 344 -162 l62 -47 0 -940 0 -939 -44 -62 c-147 -206
-345 -306 -603 -306 -326 1 -548 167 -662 494 -76 216 -106 477 -98 844 7 320
34 491 108 684 86 221 273 404 465 453 91 23 301 13 428 -19z"/>
<path d="M6356 7018 c-3 -7 -9 -1174 -15 -2593 -6 -1521 -15 -2615 -21 -2665
-15 -134 -40 -277 -66 -380 -141 -549 -472 -947 -988 -1184 l-118 -55 83 -25
c440 -133 1047 -153 1501 -50 516 117 857 385 1092 857 124 250 195 495 242
834 17 124 27 1139 38 3746 l7 1527 -876 0 c-692 0 -876 -3 -879 -12z"/>
<path d="M9980 3941 c-439 -97 -762 -455 -812 -900 -35 -317 83 -628 324 -857
288 -273 720 -351 1089 -197 134 56 229 121 339 232 141 143 234 313 275 506
23 106 24 312 1 417 -83 385 -369 684 -755 789 -112 31 -345 36 -461 10z"/>
</g>
</svg>
