<svg width="3em" height="3em" viewBox="0 0 8 9" xmlns="http://www.w3.org/2000/svg" class="cf-icon-svg">
<path d="M4.41667 8.25H2.75V3.25H4.41667V4.08333C4.77193 3.63136 5.31068 3.36191 5.88542 3.34875C6.919 3.35449 7.753 4.19557 7.75001 5.22917V8.25H6.08333V5.4375C6.01668 4.97193 5.6174 4.62649 5.14708 4.6275C4.94137 4.634 4.74718 4.72407 4.60935 4.87693C4.47152 5.02978 4.40194 5.23221 4.41667 5.4375V8.25ZM1.91667 8.25H0.25V3.25H1.91667V8.25ZM1.08333 2.41667C0.623096 2.41667 0.25 2.04357 0.25 1.58333C0.25 1.1231 0.623096 0.75 1.08333 0.75C1.54357 0.75 1.91667 1.1231 1.91667 1.58333C1.91667 1.80435 1.82887 2.01631 1.67259 2.17259C1.51631 2.32887 1.30435 2.41667 1.08333 2.41667Z" fill="#fff"/>
</svg>
