<svg width="8" height="8" viewBox="0 0 8 8" fill="none" xmlns="http://www.w3.org/2000/svg">
<path d="M2.52697 7.55627C1.6844 7.55627 0.924794 7.04872 0.602303 6.27032C0.279813 5.49191 0.457941 4.59588 1.05364 4.00001L1.9378 3.11584L2.52697 3.70501L1.64322 4.58876C1.32741 4.90457 1.20407 5.36487 1.31967 5.79627C1.43526 6.22767 1.77223 6.56463 2.20363 6.68023C2.63503 6.79582 3.09533 6.67248 3.41114 6.35668L4.29489 5.47293L4.88405 6.06251L4.0003 6.94626C3.61033 7.33815 3.07983 7.55779 2.52697 7.55627ZM2.82155 5.76751L2.23239 5.17834L5.17864 2.23209L5.7678 2.82126L2.82197 5.76709L2.82155 5.76751ZM6.0628 4.88376L5.47322 4.29459L6.35697 3.41084C6.67708 3.09598 6.80372 2.63362 6.68874 2.19958C6.57375 1.76555 6.23481 1.42653 5.80081 1.31144C5.3668 1.19636 4.90441 1.32289 4.58947 1.64293L3.7053 2.52668L3.11614 1.93751L4.0003 1.05334C4.81492 0.245828 6.12904 0.248705 6.94012 1.05978C7.75119 1.87085 7.75407 3.18497 6.94655 3.99959L6.0628 4.88334V4.88376Z" fill="#E2E6EE"/>
</svg>
