<?xml version="1.0" standalone="no"?>
<!DOCTYPE svg PUBLIC "-//W3C//DTD SVG 20010904//EN"
 "http://www.w3.org/TR/2001/REC-SVG-20010904/DTD/svg10.dtd">
<svg version="1.0" xmlns="http://www.w3.org/2000/svg"
 width="2048.000000pt" height="2048.000000pt" viewBox="0 0 2048.000000 2048.000000"
 preserveAspectRatio="xMidYMid meet">
<metadata>
Created by potrace 1.16, written by Peter Selinger 2001-2019
</metadata>
<g transform="translate(0.000000,2048.000000) scale(0.100000,-0.100000)"
fill="#000000" stroke="none">
<path d="M14456 20254 c-136 -30 -240 -86 -357 -190 -58 -52 -720 -655 -1289
-1174 -113 -103 -464 -422 -780 -709 -316 -287 -595 -542 -620 -565 -40 -39
-815 -744 -1410 -1284 -124 -113 -250 -228 -280 -256 -45 -43 -245 -225 -286
-261 -6 -5 -31 -28 -55 -50 -60 -54 -241 -218 -255 -230 -7 -5 -38 -35 -70
-65 -33 -31 -129 -119 -214 -195 -85 -77 -160 -144 -166 -150 -6 -5 -55 -50
-109 -100 -54 -49 -106 -97 -115 -105 -9 -8 -70 -64 -135 -124 -66 -60 -140
-128 -165 -150 -25 -23 -119 -109 -209 -191 -90 -83 -191 -174 -225 -204 -33
-29 -93 -83 -131 -120 -39 -36 -111 -102 -160 -146 -49 -44 -123 -111 -165
-150 -41 -38 -118 -108 -169 -155 -52 -47 -101 -92 -110 -101 -17 -16 -230
-210 -450 -408 -69 -62 -153 -139 -186 -170 -151 -140 -327 -296 -335 -296 -9
0 -158 112 -1125 847 -242 184 -881 669 -1420 1078 -539 409 -1010 763 -1047
786 -79 48 -232 102 -309 108 -30 2 -43 2 -29 -1 82 -14 192 -49 263 -84 62
-30 293 -201 937 -690 470 -358 880 -669 910 -692 30 -23 176 -134 324 -247
l268 -205 -2392 -3 -2392 -2 8 -43 c4 -23 8 -51 8 -62 1 -11 5 -26 9 -32 5 -7
5 -18 2 -23 -4 -6 3 -29 14 -51 12 -22 19 -45 16 -50 -4 -5 -1 -9 4 -9 6 0 11
-6 11 -13 0 -21 39 -97 81 -157 46 -67 75 -97 209 -220 57 -52 133 -122 169
-156 61 -56 160 -145 187 -169 20 -17 175 -159 209 -190 18 -16 67 -61 110
-100 43 -38 94 -86 114 -105 20 -19 75 -70 122 -112 47 -43 99 -90 115 -105
16 -15 70 -64 118 -108 49 -44 94 -85 100 -90 31 -30 167 -154 211 -194 28
-25 77 -70 110 -100 33 -31 100 -92 149 -136 49 -44 94 -85 100 -91 19 -18
487 -444 581 -529 48 -44 95 -87 104 -96 9 -8 45 -42 81 -75 36 -32 113 -102
170 -155 58 -52 126 -115 153 -138 26 -24 47 -47 47 -51 0 -4 -170 -162 -377
-351 -208 -189 -402 -367 -433 -395 -30 -28 -550 -502 -1155 -1054 -605 -551
-1124 -1030 -1153 -1064 -60 -70 -130 -200 -162 -301 -28 -88 -39 -312 -20
-408 26 -134 80 -254 164 -366 54 -72 1251 -1161 1339 -1218 219 -143 481
-175 734 -91 51 17 123 49 161 72 37 23 636 474 1332 1002 696 528 1299 984
1340 1014 41 30 266 199 498 375 233 176 427 320 432 320 6 0 214 -182 274
-240 6 -6 67 -62 136 -124 69 -63 170 -155 225 -206 95 -87 460 -420 904 -824
275 -250 456 -415 516 -471 28 -25 183 -167 345 -314 162 -148 318 -290 345
-315 28 -26 156 -143 285 -261 343 -312 525 -478 795 -725 132 -121 465 -425
740 -675 275 -250 531 -484 570 -520 38 -36 192 -176 340 -311 149 -135 821
-748 1493 -1362 673 -614 1228 -1115 1232 -1114 5 1 16 -7 25 -18 9 -11 14
-15 10 -8 -3 7 23 -1 58 -17 177 -80 370 -87 557 -21 114 40 184 85 281 181
95 94 146 174 188 298 l26 77 3 2400 2 2400 -23 15 c-17 11 -6045 4584 -6086
4617 -3 2 4 10 15 17 16 11 459 349 1043 795 75 57 226 172 336 256 110 83
846 641 1635 1240 1801 1367 3040 2305 3063 2319 16 10 17 133 17 2341 0 1516
-4 2359 -10 2411 -38 300 -236 531 -535 624 -94 29 -264 36 -359 14z"/>
<path d="M18335 1529 c-649 -313 -1250 -602 -1335 -643 -1186 -570 -1514 -726
-1560 -744 -30 -12 -98 -33 -150 -47 -52 -13 -86 -24 -75 -24 45 -2 212 52
323 102 129 60 3867 1859 3947 1900 28 14 46 26 40 26 -5 -1 -541 -257 -1190
-570z"/>
</g>
</svg>
