<?xml version="1.0" encoding="UTF-8"?>
<svg width="124px" height="29px" viewBox="0 0 124 29" version="1.1" xmlns="http://www.w3.org/2000/svg" xmlns:xlink="http://www.w3.org/1999/xlink">
    <!-- Generator: Sketch 53.2 (72643) - https://sketchapp.com -->
    <title>Group 106</title>
    <desc>Created with Sketch.</desc>
    <g id="Page-1" stroke="none" stroke-width="1" fill="none" fill-rule="evenodd">
        <g id="Group-106" fill="#fff" fill-rule="nonzero">
            <g id="Page-1">
                <g id="Program-1170">
                    <g id="Group-9">
                        <g id="Group-119">
                            <g id="Group-110">
                                <g id="Group" transform="translate(0.000000, 0.070598)">
                                    <g id="Path" transform="translate(5.574194, 11.194853)">
                                        <path d="M9.9,12 C4.6,12 0.4,9.6 0.4,6.6 L0.4,0.7 C0.4,0.4 0.7,0.1 1,0.1 C1.3,0.1 1.6,0.4 1.6,0.7 L1.6,6.5 C1.6,8.7 5.5,10.7 9.9,10.7 C14.3,10.7 18.2,8.7 18.2,6.5 L18.2,0.7 C18.2,0.4 18.5,0.1 18.8,0.1 C19.1,0.1 19.4,0.4 19.4,0.7 L19.4,6.5 C19.4,9.5 15.2,12 9.9,12 Z"></path>
                                    </g>
                                    <g transform="translate(5.574194, 13.060662)" id="Path">
                                        <path d="M9.9,6.2 C4.6,6.2 0.4,3.7 0.4,0.7 C0.4,0.4 0.7,0.1 1,0.1 C1.3,0.1 1.6,0.4 1.6,0.7 C1.6,3 5.5,5 9.9,5 C14.3,5 18.2,3 18.2,0.8 C18.2,0.5 18.5,0.2 18.8,0.2 C19.1,0.2 19.4,0.5 19.4,0.8 C19.4,3.8 15.2,6.2 9.9,6.2 Z"></path>
                                    </g>
                                    <g id="Path">
                                        <path d="M15.5,14.5 C14.6,14.5 13.7,14.3 12.9,14 L0.9,9.5 C0.4,9.4 0,8.9 0,8.4 C0,7.9 0.2,7.4 0.7,7.2 L13.6,1 C14.8,0.5 16.1,0.5 17.3,1 L30.3,7.3 C30.7,7.6 31,8 31,8.6 C31,9.1 30.6,9.5 30.2,9.6 L29.3,9.9 C29,10 28.6,9.8 28.5,9.5 C28.4,9.2 28.6,8.8 28.9,8.7 L29.7,8.4 L16.7,2.1 C15.9,1.7 14.9,1.7 14.1,2.1 L1.2,8.4 L13.2,12.8 C14.6,13.3 16.2,13.3 17.7,12.8 L24.6,10.3 C24.9,10.2 25.3,10.3 25.4,10.7 C25.5,11 25.4,11.4 25,11.5 L18.2,14 C17.3,14.3 16.4,14.5 15.5,14.5 Z"></path>
                                    </g>
                                    <g id="Shape" transform="translate(26.012903, 19.901961)">
                                        <path d="M3.3,3.4 L1.2,3.4 C0.9,3.4 0.6,3.1 0.6,2.8 L0.6,1.8 C0.6,0.9 1.4,0.1 2.3,0.1 C3.2,0.1 4,0.9 4,1.8 L4,2.8 C4,3.1 3.7,3.4 3.3,3.4 Z M1.8,2.2 L2.7,2.2 L2.7,1.8 C2.7,1.5 2.5,1.3 2.2,1.3 C1.9,1.3 1.8,1.6 1.8,1.8 L1.8,2.2 L1.8,2.2 Z"></path>
                                    </g>
                                    <g transform="translate(25.393548, 21.145833)" id="Shape">
                                        <path d="M0.8,7.5 C0.7,7.5 0.5,7.5 0.4,7.4 C0.3,7.3 0.2,7 0.2,6.8 L1,1 C1,0.7 1.3,0.5 1.6,0.5 L3.8,0.5 C4.1,0.5 4.3,0.7 4.4,1 L5.3,4.9 C5.4,5.2 5.2,5.5 5,5.6 L1,7.5 C1,7.5 0.9,7.5 0.8,7.5 Z M2.2,1.7 L1.6,5.8 L4.1,4.6 L3.4,1.7 L2.2,1.7 Z"></path>
                                    </g>
                                    <g transform="translate(13.625806, 6.841299)" id="Path">
                                        <path d="M13.7,14.4 C13.4,14.4 13.1,14.1 13.1,13.8 L13.1,3.4 L0.8,1.8 C0.5,1.8 0.2,1.4 0.3,1.1 C0.4,0.8 0.7,0.5 1,0.6 L13.9,2.3 C14.2,2.3 14.4,2.6 14.4,2.9 L14.4,13.8 C14.4,14.1 14.1,14.4 13.7,14.4 Z"></path>
                                    </g>
                                </g>
                            </g>
                        </g>
                    </g>
                </g>
            </g>
            <g id="Group-97" transform="translate(37.000000, 5.000000)">
                <path d="M0.9,1.5 L-3.55271368e-15,1.5 L-3.55271368e-15,0 L3.8,0 L3.8,1.5 L2.9,1.5 L2.9,4.9 C2.9,5.3 3,5.6 3.1,5.7 C3.3,6.1 3.8,6.3 4.3,6.3 C4.8,6.3 5.2,6.1 5.4,5.7 C5.6,5.4 5.6,5.1 5.6,4.8 L5.6,1.5 L4.7,1.5 L4.7,0 L8.5,0 L8.5,1.5 L7.6,1.5 L7.6,4.9 C7.6,5.7 7.3,6.5 6.9,6.9 C6.2,7.6 5.2,8 4.2,8 C3.1,8 2.1,7.6 1.5,6.9 C1,6.3 0.8,5.6 0.8,4.8 L0.9,1.5 L0.9,1.5 Z" id="Path"></path>
                <path d="M10.7,6.5 L11.6,6.5 L11.6,1.5 L10.7,1.5 L10.7,0 L13.6,0 L16.1,4.2 C16.3,4.5 16.5,5 16.5,5 L16.5,5 C16.5,5 16.4,4.4 16.4,4.1 L16.4,1.5 L15.5,1.5 L15.5,0 L19.3,0 L19.3,1.5 L18.4,1.5 L18.4,8 L16.4,8 L14.1,3.7 C13.9,3.4 13.7,2.9 13.7,2.9 L13.7,2.9 C13.7,2.9 13.8,3.5 13.8,3.8 L13.8,6.5 L14.7,6.5 L14.7,8 L10.9,8 L10.7,6.5 L10.7,6.5 Z" id="Path"></path>
                <polygon id="Path" points="21.4 6.5 22.4 6.5 22.4 1.5 21.4 1.5 21.4 0 25.3 0 25.3 1.5 24.3 1.5 24.3 6.5 25.3 6.5 25.3 8 21.4 8"></polygon>
                <path d="M28.1,1.5 L27.4,1.5 L27.4,0 L31,0 L31,1.5 L30.3,1.5 L31.3,5 C31.4,5.4 31.5,5.8 31.5,5.8 L31.5,5.8 C31.5,5.8 31.5,5.3 31.7,5 L32.7,1.5 L32,1.5 L32,0 L35.5,0 L35.5,1.5 L34.8,1.5 L32.6,8 L30.6,8 L28.1,1.5 Z" id="Path"></path>
                <polygon id="Path" points="37.8 6.5 38.7 6.5 38.7 1.5 37.8 1.5 37.8 7.27418126e-13 43.9 7.27418126e-13 43.9 2.3 42.2 2.3 42.2 1.6 40.7 1.6 40.7 3.2 43 3.2 43 4.7 40.7 4.7 40.7 6.4 42.3 6.4 42.3 5.6 44 5.6 44 7.9 37.7 7.9 37.7 6.5"></polygon>
                <path d="M46.2,6.5 L47.1,6.5 L47.1,1.5 L46.2,1.5 L46.2,-7.28306304e-13 L49.8,-7.28306304e-13 C50.4,-7.28306304e-13 50.9,-7.28306304e-13 51.4,0.2 C52.4,0.5 53,1.3 53,2.4 C53,3.4 52.5,4.2 51.7,4.6 L51.7,4.6 C51.7,4.6 52,4.7 52.2,5.1 L52.9,6.3 C53,6.5 53.2,6.6 53.5,6.6 L53.8,6.6 L53.8,8.1 L52.5,8.1 C51.8,8.1 51.6,7.9 51.4,7.5 L50.5,5.6 C50.4,5.3 50.2,5.2 49.8,5.2 L49.4,5.2 L49.4,6.4 L50.2,6.4 L50.2,8 L46.5,8 L46.5,6.5 L46.2,6.5 Z M50,3.6 C50.7,3.6 51,3.3 51,2.6 C51,2.2 50.9,1.9 50.5,1.8 C50.3,1.7 50,1.7 49.8,1.7 L49.1,1.7 L49.1,3.7 L50,3.6 L50,3.6 Z" id="Shape"></path>
                <path d="M57.6,5.3 L57.6,5.9 C57.6,6.3 58.2,6.6 58.7,6.6 C59.3,6.6 59.8,6.4 59.8,5.9 C59.8,5.2 59,5.1 58.1,4.8 C57,4.4 56,3.9 56,2.4 C56.1,0.6 57.6,-1.45572443e-12 59,-1.45572443e-12 C60.4,-1.45572443e-12 61.7,0.6 61.7,1.5 L61.7,2.7 L59.9,2.7 L59.9,2.2 C59.9,1.9 59.4,1.7 59,1.7 C58.5,1.7 58.2,1.8 58.2,2.3 C58.2,2.9 58.9,3 59.6,3.3 C60.8,3.8 62,4.2 62,5.7 C62,7.6 60.4,8.2 58.9,8.2 C57.4,8.2 55.9,7.5 55.9,6.2 L55.9,5.2 L57.6,5.2 L57.6,5.3 Z" id="Path"></path>
                <polygon id="Path" points="64.1 6.5 65.1 6.5 65.1 1.5 64.1 1.5 64.1 0 68 0 68 1.5 67 1.5 67 6.5 68 6.5 68 8 64.1 8"></polygon>
                <polygon id="Path" points="71.8 6.5 72.8 6.5 72.8 1.6 71.8 1.6 71.8 2.7 70.2 2.7 70.2 0 77.4 0 77.4 2.7 75.7 2.7 75.7 1.6 74.8 1.6 74.8 6.5 75.7 6.5 75.7 8 71.9 8 71.9 6.5"></polygon>
                <path d="M81.3,6.5 L82.2,6.5 L82.2,4.6 L80.2,1.3 L79.5,1.3 L79.5,-1.45572443e-12 L82.8,-1.45572443e-12 L82.8,1.5 L82.1,1.5 L82.9,3 C83,3.2 83.1,3.4 83.1,3.4 L83.1,3.4 C83.1,3.4 83.2,3.2 83.3,3 L84.1,1.5 L83.4,1.5 L83.4,-1.45572443e-12 L86.7,-1.45572443e-12 L86.7,1.5 L86,1.5 L84,4.8 L84,6.7 L84.9,6.7 L84.9,8.2 L81.1,8.2 L81.3,6.5 L81.3,6.5 Z" id="Path"></path>
            </g>
            <g id="Group-105" transform="translate(45.000000, 16.900000)">
                <path d="M-1.81188398e-13,6.5 L0.9,6.5 L0.9,1.5 L-1.81188398e-13,1.5 L-1.81188398e-13,0 L4,0 C4.5,0 4.9,0 5.3,0.2 C6.2,0.6 6.9,1.5 6.9,2.7 C6.9,3.9 6.2,4.9 5.3,5.2 C4.9,5.3 4.6,5.4 4.1,5.4 L3,5.4 L3,6.5 L3.9,6.5 L3.9,8 L0.1,8 L-1.81188398e-13,6.5 L-1.81188398e-13,6.5 Z M3.7,3.8 C4,3.8 4.2,3.7 4.4,3.6 C4.7,3.4 4.9,3 4.9,2.6 C4.9,2.1 4.8,1.9 4.5,1.7 C4.3,1.6 4.1,1.5 3.8,1.5 L3,1.5 L3,3.7 L3.7,3.8 L3.7,3.8 Z" id="Shape"></path>
                <path d="M9.1,6.5 L10,6.5 L10,1.5 L9.1,1.5 L9.1,1.77635684e-15 L12.7,1.77635684e-15 C13.3,1.77635684e-15 13.8,1.77635684e-15 14.3,0.2 C15.2,0.5 15.9,1.3 15.9,2.4 C15.9,3.4 15.4,4.2 14.6,4.6 L14.6,4.6 C14.6,4.6 14.9,4.7 15.1,5.1 L15.8,6.3 C15.9,6.5 16.1,6.6 16.4,6.6 L16.7,6.6 L16.7,8 L15.4,8 C14.7,8 14.5,7.8 14.3,7.4 L13.4,5.5 C13.3,5.2 13.1,5.1 12.7,5.1 L12.3,5.1 L12.3,6.5 L13,6.5 L13,7.9 L9.3,7.9 L9.3,6.4 L9.1,6.4 L9.1,6.5 Z M12.9,3.6 C13.6,3.6 13.9,3.3 13.9,2.6 C13.9,2.2 13.8,1.9 13.4,1.8 C13.2,1.7 12.9,1.7 12.7,1.7 L12,1.7 L12,3.7 L12.9,3.6 L12.9,3.6 Z" id="Shape"></path>
                <path d="M23.2,1.45483625e-12 C25.6,1.45483625e-12 27.4,1.8 27.4,4.1 C27.4,6.4 25.6,8.3 23.2,8.3 C20.8,8.3 19,6.4 19,4.1 C19,1.8 20.8,1.45483625e-12 23.2,1.45483625e-12 Z M23.2,6.6 C24.4,6.6 25.3,5.6 25.3,4.2 C25.3,2.9 24.4,1.9 23.2,1.9 C22,1.9 21.1,2.9 21.1,4.2 C21,5.4 22,6.6 23.2,6.6 Z" id="Shape"></path>
                <path d="M33.9,7.26529947e-13 C35.4,7.26529947e-13 37.2,0.6 37.2,1.6 L37.2,2.9 L35.4,2.9 L35.4,2.3 C35.4,1.9 34.8,1.7 34.1,1.7 C32.6,1.7 31.8,2.5 31.8,4 C31.8,5.5 32.6,6.6 34.2,6.6 C34.8,6.6 35.6,6.5 35.6,6 L35.6,5.4 L34.3,5.4 L34.3,4.1 L37.4,4.1 L37.4,6.8 C37.4,8 35.2,8.4 34,8.4 C31.6,8.4 29.7,6.6 29.7,4.2 C29.6,1.6 31.3,7.26529947e-13 33.9,7.26529947e-13 Z" id="Path"></path>
                <path d="M39.5,6.5 L40.4,6.5 L40.4,1.5 L39.5,1.5 L39.5,1.77635684e-15 L43.1,1.77635684e-15 C43.7,1.77635684e-15 44.2,1.77635684e-15 44.7,0.2 C45.6,0.5 46.3,1.3 46.3,2.4 C46.3,3.4 45.8,4.2 45,4.6 L45,4.6 C45,4.6 45.3,4.7 45.5,5.1 L46.2,6.3 C46.3,6.5 46.5,6.6 46.8,6.6 L47,6.6 L47,8 L45.7,8 C45,8 44.8,7.8 44.6,7.4 L43.7,5.5 C43.6,5.2 43.4,5.1 43,5.1 L42.6,5.1 L42.6,6.5 L43.4,6.5 L43.4,7.9 L39.7,7.9 L39.7,6.4 L39.5,6.4 L39.5,6.5 Z M43.3,3.6 C44,3.6 44.3,3.3 44.3,2.6 C44.3,2.2 44.2,1.9 43.8,1.8 C43.6,1.7 43.3,1.7 43.1,1.7 L42.4,1.7 L42.4,3.7 L43.3,3.6 L43.3,3.6 Z" id="Shape"></path>
                <path d="M49.4,6.5 L50,6.5 L52.1,0 L54.3,0 L56.4,6.5 L57.1,6.5 L57.1,8 L53.8,8 L53.8,6.5 L54.5,6.5 L54.2,5.5 L52.2,5.5 L51.9,6.5 L52.6,6.5 L52.6,8 L49.3,8 L49.3,6.5 L49.4,6.5 Z M53.9,3.9 L53.5,2.4 C53.4,1.9 53.3,1.6 53.3,1.6 L53.3,1.6 C53.3,1.6 53.3,2 53.1,2.4 L52.6,3.9 L53.9,3.9 Z" id="Shape"></path>
                <path d="M59.4,6.6 L60.2,6.6 L60.7,1.5 L59.8,1.5 L59.8,-7.28306304e-13 L63,-7.28306304e-13 L64.3,3.9 C64.5,4.4 64.5,4.7 64.5,4.7 L64.5,4.7 C64.5,4.7 64.6,4.3 64.7,3.9 L66,-7.28306304e-13 L69.2,-7.28306304e-13 L69.2,1.6 L68.3,1.6 L68.8,6.7 L69.6,6.7 L69.6,8.1 L66,8.1 L66,6.6 L66.8,6.6 L66.6,3.7 C66.6,3.3 66.6,2.8 66.6,2.8 L66.6,2.8 C66.6,2.8 66.5,3.4 66.4,3.6 L65.4,6.5 L63.7,6.5 L62.7,3.6 C62.6,3.2 62.5,2.8 62.5,2.8 L62.5,2.8 C62.5,2.8 62.6,3.4 62.5,3.7 L62.3,6.6 L63.1,6.6 L63.1,8.1 L59.5,8.1 L59.5,6.6 L59.4,6.6 Z" id="Path"></path>
            </g>
        </g>
    </g>
</svg>