<svg width="8" height="8" viewBox="0 0 8 8" fill="none" xmlns="http://www.w3.org/2000/svg">
<path d="M6.9157 7.33335C3.36086 7.33839 0.662949 4.60814 0.666752 1.0844C0.666752 0.854281 0.8533 0.666687 1.08342 0.666687H2.18315C2.38964 0.666687 2.56505 0.818408 2.59537 1.02266C2.66804 1.51219 2.81057 1.98876 3.01862 2.43781L3.06143 2.53023C3.12097 2.65873 3.08061 2.81141 2.96536 2.89372C2.62479 3.13693 2.49463 3.6265 2.75995 4.0085C3.09291 4.48787 3.5126 4.90748 3.99186 5.24028C4.37384 5.50553 4.86333 5.37539 5.10654 5.03487C5.1889 4.91956 5.34167 4.87919 5.47025 4.93875L5.56224 4.98136C6.01133 5.18939 6.48793 5.33193 6.97751 5.40458C7.18177 5.4349 7.33341 5.6103 7.33341 5.8168V6.91668C7.33341 7.1468 7.14641 7.33335 6.91629 7.33334L6.9157 7.33335Z" fill="#E2E6EE"/>
</svg>
